<?xml version="1.0" encoding="UTF-8" standalone="no"?><svg xmlns="http://www.w3.org/2000/svg" xmlns:xlink="http://www.w3.org/1999/xlink" contentStyleType="text/css" height="330px" preserveAspectRatio="none" style="width:2252px;height:330px;background:#FFFFFF;" version="1.1" viewBox="0 0 2252 330" width="2252px" zoomAndPan="magnify"><defs/><g><!--MD5=[cf5968f78efcd14bbe5a64ac28b2d07f]
cluster com.niceplaces.niceplaces.activities--><g id="cluster_com.niceplaces.niceplaces.activities"><path d="M8.5,6.0137 L266.5,6.0137 A3.75,3.75 0 0 1 269,8.5137 L276,30.6348 L1182.5,30.6348 A2.5,2.5 0 0 1 1185,33.1348 L1185,320.5137 A2.5,2.5 0 0 1 1182.5,323.0137 L8.5,323.0137 A2.5,2.5 0 0 1 6,320.5137 L6,8.5137 A2.5,2.5 0 0 1 8.5,6.0137 " fill="none" style="stroke:#000000;stroke-width:1.5;"/><line style="stroke:#000000;stroke-width:1.5;" x1="6" x2="276" y1="30.6348" y2="30.6348"/><text fill="#000000" font-family="sans-serif" font-size="14" font-weight="bold" lengthAdjust="spacing" textLength="257" x="10" y="23.1211">com.niceplaces.niceplaces.activities</text></g><!--MD5=[806f1e80f7253ba5dc27cebfc8c0fd29]
cluster com.niceplaces.niceplaces--><g id="cluster_com.niceplaces.niceplaces"><path d="M1211.5,222.0137 L1401.5,222.0137 A3.75,3.75 0 0 1 1404,224.5137 L1411,246.6348 L1411.5,246.6348 A2.5,2.5 0 0 1 1414,249.1348 L1414,320.5137 A2.5,2.5 0 0 1 1411.5,323.0137 L1211.5,323.0137 A2.5,2.5 0 0 1 1209,320.5137 L1209,224.5137 A2.5,2.5 0 0 1 1211.5,222.0137 " fill="none" style="stroke:#000000;stroke-width:1.5;"/><line style="stroke:#000000;stroke-width:1.5;" x1="1209" x2="1411" y1="246.6348" y2="246.6348"/><text fill="#000000" font-family="sans-serif" font-size="14" font-weight="bold" lengthAdjust="spacing" textLength="189" x="1213" y="239.1211">com.niceplaces.niceplaces</text></g><!--MD5=[7c9c12bc2a75740b0d450bae54ff73f7]
cluster com.niceplaces.niceplaces.dialogs--><g id="cluster_com.niceplaces.niceplaces.dialogs"><path d="M1440.5,222.0137 L1685.5,222.0137 A3.75,3.75 0 0 1 1688,224.5137 L1695,246.6348 L1695.5,246.6348 A2.5,2.5 0 0 1 1698,249.1348 L1698,320.5137 A2.5,2.5 0 0 1 1695.5,323.0137 L1440.5,323.0137 A2.5,2.5 0 0 1 1438,320.5137 L1438,224.5137 A2.5,2.5 0 0 1 1440.5,222.0137 " fill="none" style="stroke:#000000;stroke-width:1.5;"/><line style="stroke:#000000;stroke-width:1.5;" x1="1438" x2="1695" y1="246.6348" y2="246.6348"/><text fill="#000000" font-family="sans-serif" font-size="14" font-weight="bold" lengthAdjust="spacing" textLength="244" x="1442" y="239.1211">com.niceplaces.niceplaces.dialogs</text></g><!--MD5=[3b97e3959a1a993661838c5781f099a2]
cluster com.niceplaces.niceplaces.models--><g id="cluster_com.niceplaces.niceplaces.models"><path d="M1724.5,222.0137 L1969.5,222.0137 A3.75,3.75 0 0 1 1972,224.5137 L1979,246.6348 L1979.5,246.6348 A2.5,2.5 0 0 1 1982,249.1348 L1982,320.5137 A2.5,2.5 0 0 1 1979.5,323.0137 L1724.5,323.0137 A2.5,2.5 0 0 1 1722,320.5137 L1722,224.5137 A2.5,2.5 0 0 1 1724.5,222.0137 " fill="none" style="stroke:#000000;stroke-width:1.5;"/><line style="stroke:#000000;stroke-width:1.5;" x1="1722" x2="1979" y1="246.6348" y2="246.6348"/><text fill="#000000" font-family="sans-serif" font-size="14" font-weight="bold" lengthAdjust="spacing" textLength="244" x="1726" y="239.1211">com.niceplaces.niceplaces.models</text></g><!--MD5=[db9477cc84a77b8a38c58996dc978e6e]
cluster com.niceplaces.niceplaces.utils--><g id="cluster_com.niceplaces.niceplaces.utils"><path d="M2008.5,222.0137 L2232.5,222.0137 A3.75,3.75 0 0 1 2235,224.5137 L2242,246.6348 L2242.5,246.6348 A2.5,2.5 0 0 1 2245,249.1348 L2245,320.5137 A2.5,2.5 0 0 1 2242.5,323.0137 L2008.5,323.0137 A2.5,2.5 0 0 1 2006,320.5137 L2006,224.5137 A2.5,2.5 0 0 1 2008.5,222.0137 " fill="none" style="stroke:#000000;stroke-width:1.5;"/><line style="stroke:#000000;stroke-width:1.5;" x1="2006" x2="2242" y1="246.6348" y2="246.6348"/><text fill="#000000" font-family="sans-serif" font-size="14" font-weight="bold" lengthAdjust="spacing" textLength="223" x="2010" y="239.1211">com.niceplaces.niceplaces.utils</text></g><!--MD5=[0672d2aa12e0dc219073069b20edd970]
class DebugOptionsActivity--><g id="elem_DebugOptionsActivity"><rect codeLine="2" fill="#F1F1F1" height="48" id="DebugOptionsActivity" rx="2.5" ry="2.5" style="stroke:#181818;stroke-width:0.5;" width="167" x="22.5" y="259.0137"/><ellipse cx="37.5" cy="275.0137" fill="#ADD1B2" rx="11" ry="11" style="stroke:#181818;stroke-width:1.0;"/><path d="M40.2656,270.8887 Q40.4219,270.6699 40.6094,270.5605 Q40.7969,270.4512 41.0156,270.4512 Q41.3906,270.4512 41.625,270.7168 Q41.8594,270.9668 41.8594,271.5762 L41.8594,273.0293 Q41.8594,273.6387 41.625,273.9043 Q41.3906,274.1699 41.0156,274.1699 Q40.6719,274.1699 40.4688,273.9668 Q40.2656,273.7793 40.1563,273.2637 Q40.1094,272.9043 39.9219,272.7168 Q39.5938,272.3418 38.9844,272.123 Q38.375,271.9043 37.75,271.9043 Q36.9844,271.9043 36.3438,272.2324 Q35.7188,272.5605 35.2188,273.3105 Q34.7344,274.0605 34.7344,275.0918 L34.7344,276.1855 Q34.7344,277.4199 35.625,278.248 Q36.5156,279.0605 38.1094,279.0605 Q39.0469,279.0605 39.7031,278.8105 Q40.0938,278.6543 40.5156,278.2168 Q40.7813,277.9512 40.9219,277.873 Q41.0781,277.7949 41.2813,277.7949 Q41.6094,277.7949 41.8594,278.0605 Q42.125,278.3105 42.125,278.6543 Q42.125,278.998 41.7813,279.4043 Q41.2813,279.9824 40.4844,280.3105 Q39.4063,280.7637 38.1094,280.7637 Q36.5938,280.7637 35.3906,280.1387 Q34.4063,279.6387 33.7188,278.5762 Q33.0313,277.498 33.0313,276.2168 L33.0313,275.0605 Q33.0313,273.7324 33.6406,272.5918 Q34.2656,271.4355 35.3594,270.8262 Q36.4531,270.2012 37.6875,270.2012 Q38.4219,270.2012 39.0625,270.373 Q39.7188,270.5293 40.2656,270.8887 Z " fill="#000000"/><text fill="#000000" font-family="sans-serif" font-size="14" lengthAdjust="spacing" textLength="135" x="51.5" y="280.8105">DebugOptionsActivity</text><line style="stroke:#181818;stroke-width:0.5;" x1="23.5" x2="188.5" y1="291.0137" y2="291.0137"/><line style="stroke:#181818;stroke-width:0.5;" x1="23.5" x2="188.5" y1="299.0137" y2="299.0137"/></g><!--MD5=[3cbc91592253287b97490780963bad64]
class ExploreActivity--><g id="elem_ExploreActivity"><rect codeLine="5" fill="#F1F1F1" height="48" id="ExploreActivity" rx="2.5" ry="2.5" style="stroke:#181818;stroke-width:0.5;" width="123" x="224.5" y="259.0137"/><ellipse cx="239.5" cy="275.0137" fill="#ADD1B2" rx="11" ry="11" style="stroke:#181818;stroke-width:1.0;"/><path d="M242.2656,270.8887 Q242.4219,270.6699 242.6094,270.5605 Q242.7969,270.4512 243.0156,270.4512 Q243.3906,270.4512 243.625,270.7168 Q243.8594,270.9668 243.8594,271.5762 L243.8594,273.0293 Q243.8594,273.6387 243.625,273.9043 Q243.3906,274.1699 243.0156,274.1699 Q242.6719,274.1699 242.4688,273.9668 Q242.2656,273.7793 242.1563,273.2637 Q242.1094,272.9043 241.9219,272.7168 Q241.5938,272.3418 240.9844,272.123 Q240.375,271.9043 239.75,271.9043 Q238.9844,271.9043 238.3438,272.2324 Q237.7188,272.5605 237.2188,273.3105 Q236.7344,274.0605 236.7344,275.0918 L236.7344,276.1855 Q236.7344,277.4199 237.625,278.248 Q238.5156,279.0605 240.1094,279.0605 Q241.0469,279.0605 241.7031,278.8105 Q242.0938,278.6543 242.5156,278.2168 Q242.7813,277.9512 242.9219,277.873 Q243.0781,277.7949 243.2813,277.7949 Q243.6094,277.7949 243.8594,278.0605 Q244.125,278.3105 244.125,278.6543 Q244.125,278.998 243.7813,279.4043 Q243.2813,279.9824 242.4844,280.3105 Q241.4063,280.7637 240.1094,280.7637 Q238.5938,280.7637 237.3906,280.1387 Q236.4063,279.6387 235.7188,278.5762 Q235.0313,277.498 235.0313,276.2168 L235.0313,275.0605 Q235.0313,273.7324 235.6406,272.5918 Q236.2656,271.4355 237.3594,270.8262 Q238.4531,270.2012 239.6875,270.2012 Q240.4219,270.2012 241.0625,270.373 Q241.7188,270.5293 242.2656,270.8887 Z " fill="#000000"/><text fill="#000000" font-family="sans-serif" font-size="14" lengthAdjust="spacing" textLength="91" x="253.5" y="280.8105">ExploreActivity</text><line style="stroke:#181818;stroke-width:0.5;" x1="225.5" x2="346.5" y1="291.0137" y2="291.0137"/><line style="stroke:#181818;stroke-width:0.5;" x1="225.5" x2="346.5" y1="299.0137" y2="299.0137"/></g><!--MD5=[a7b5609dd1c28154c91e946db86144e4]
class InfoActivity--><g id="elem_InfoActivity"><rect codeLine="8" fill="#F1F1F1" height="48" id="InfoActivity" rx="2.5" ry="2.5" style="stroke:#181818;stroke-width:0.5;" width="99" x="382.5" y="259.0137"/><ellipse cx="397.5" cy="275.0137" fill="#ADD1B2" rx="11" ry="11" style="stroke:#181818;stroke-width:1.0;"/><path d="M400.2656,270.8887 Q400.4219,270.6699 400.6094,270.5605 Q400.7969,270.4512 401.0156,270.4512 Q401.3906,270.4512 401.625,270.7168 Q401.8594,270.9668 401.8594,271.5762 L401.8594,273.0293 Q401.8594,273.6387 401.625,273.9043 Q401.3906,274.1699 401.0156,274.1699 Q400.6719,274.1699 400.4688,273.9668 Q400.2656,273.7793 400.1563,273.2637 Q400.1094,272.9043 399.9219,272.7168 Q399.5938,272.3418 398.9844,272.123 Q398.375,271.9043 397.75,271.9043 Q396.9844,271.9043 396.3438,272.2324 Q395.7188,272.5605 395.2188,273.3105 Q394.7344,274.0605 394.7344,275.0918 L394.7344,276.1855 Q394.7344,277.4199 395.625,278.248 Q396.5156,279.0605 398.1094,279.0605 Q399.0469,279.0605 399.7031,278.8105 Q400.0938,278.6543 400.5156,278.2168 Q400.7813,277.9512 400.9219,277.873 Q401.0781,277.7949 401.2813,277.7949 Q401.6094,277.7949 401.8594,278.0605 Q402.125,278.3105 402.125,278.6543 Q402.125,278.998 401.7813,279.4043 Q401.2813,279.9824 400.4844,280.3105 Q399.4063,280.7637 398.1094,280.7637 Q396.5938,280.7637 395.3906,280.1387 Q394.4063,279.6387 393.7188,278.5762 Q393.0313,277.498 393.0313,276.2168 L393.0313,275.0605 Q393.0313,273.7324 393.6406,272.5918 Q394.2656,271.4355 395.3594,270.8262 Q396.4531,270.2012 397.6875,270.2012 Q398.4219,270.2012 399.0625,270.373 Q399.7188,270.5293 400.2656,270.8887 Z " fill="#000000"/><text fill="#000000" font-family="sans-serif" font-size="14" lengthAdjust="spacing" textLength="67" x="411.5" y="280.8105">InfoActivity</text><line style="stroke:#181818;stroke-width:0.5;" x1="383.5" x2="480.5" y1="291.0137" y2="291.0137"/><line style="stroke:#181818;stroke-width:0.5;" x1="383.5" x2="480.5" y1="299.0137" y2="299.0137"/></g><!--MD5=[2dcaf8c73b9378152b5bc11ee5a81ba8]
class IntroActivity--><g id="elem_IntroActivity"><rect codeLine="11" fill="#F1F1F1" height="48" id="IntroActivity" rx="2.5" ry="2.5" style="stroke:#181818;stroke-width:0.5;" width="104" x="1045" y="43.0137"/><ellipse cx="1060" cy="59.0137" fill="#ADD1B2" rx="11" ry="11" style="stroke:#181818;stroke-width:1.0;"/><path d="M1062.7656,54.8887 Q1062.9219,54.6699 1063.1094,54.5605 Q1063.2969,54.4512 1063.5156,54.4512 Q1063.8906,54.4512 1064.125,54.7168 Q1064.3594,54.9668 1064.3594,55.5762 L1064.3594,57.0293 Q1064.3594,57.6387 1064.125,57.9043 Q1063.8906,58.1699 1063.5156,58.1699 Q1063.1719,58.1699 1062.9688,57.9668 Q1062.7656,57.7793 1062.6563,57.2637 Q1062.6094,56.9043 1062.4219,56.7168 Q1062.0938,56.3418 1061.4844,56.123 Q1060.875,55.9043 1060.25,55.9043 Q1059.4844,55.9043 1058.8438,56.2324 Q1058.2188,56.5605 1057.7188,57.3105 Q1057.2344,58.0605 1057.2344,59.0918 L1057.2344,60.1855 Q1057.2344,61.4199 1058.125,62.248 Q1059.0156,63.0605 1060.6094,63.0605 Q1061.5469,63.0605 1062.2031,62.8105 Q1062.5938,62.6543 1063.0156,62.2168 Q1063.2813,61.9512 1063.4219,61.873 Q1063.5781,61.7949 1063.7813,61.7949 Q1064.1094,61.7949 1064.3594,62.0605 Q1064.625,62.3105 1064.625,62.6543 Q1064.625,62.998 1064.2813,63.4043 Q1063.7813,63.9824 1062.9844,64.3105 Q1061.9063,64.7637 1060.6094,64.7637 Q1059.0938,64.7637 1057.8906,64.1387 Q1056.9063,63.6387 1056.2188,62.5762 Q1055.5313,61.498 1055.5313,60.2168 L1055.5313,59.0605 Q1055.5313,57.7324 1056.1406,56.5918 Q1056.7656,55.4355 1057.8594,54.8262 Q1058.9531,54.2012 1060.1875,54.2012 Q1060.9219,54.2012 1061.5625,54.373 Q1062.2188,54.5293 1062.7656,54.8887 Z " fill="#000000"/><text fill="#000000" font-family="sans-serif" font-size="14" lengthAdjust="spacing" textLength="72" x="1074" y="64.8105">IntroActivity</text><line style="stroke:#181818;stroke-width:0.5;" x1="1046" x2="1148" y1="75.0137" y2="75.0137"/><line style="stroke:#181818;stroke-width:0.5;" x1="1046" x2="1148" y1="83.0137" y2="83.0137"/></g><!--MD5=[df0078689b9c5a823c76e2c8dd3b2816]
class LatestPlacesActivity--><g id="elem_LatestPlacesActivity"><rect codeLine="14" fill="#F1F1F1" height="48" id="LatestPlacesActivity" rx="2.5" ry="2.5" style="stroke:#181818;stroke-width:0.5;" width="157" x="516.5" y="259.0137"/><ellipse cx="531.5" cy="275.0137" fill="#ADD1B2" rx="11" ry="11" style="stroke:#181818;stroke-width:1.0;"/><path d="M534.2656,270.8887 Q534.4219,270.6699 534.6094,270.5605 Q534.7969,270.4512 535.0156,270.4512 Q535.3906,270.4512 535.625,270.7168 Q535.8594,270.9668 535.8594,271.5762 L535.8594,273.0293 Q535.8594,273.6387 535.625,273.9043 Q535.3906,274.1699 535.0156,274.1699 Q534.6719,274.1699 534.4688,273.9668 Q534.2656,273.7793 534.1563,273.2637 Q534.1094,272.9043 533.9219,272.7168 Q533.5938,272.3418 532.9844,272.123 Q532.375,271.9043 531.75,271.9043 Q530.9844,271.9043 530.3438,272.2324 Q529.7188,272.5605 529.2188,273.3105 Q528.7344,274.0605 528.7344,275.0918 L528.7344,276.1855 Q528.7344,277.4199 529.625,278.248 Q530.5156,279.0605 532.1094,279.0605 Q533.0469,279.0605 533.7031,278.8105 Q534.0938,278.6543 534.5156,278.2168 Q534.7813,277.9512 534.9219,277.873 Q535.0781,277.7949 535.2813,277.7949 Q535.6094,277.7949 535.8594,278.0605 Q536.125,278.3105 536.125,278.6543 Q536.125,278.998 535.7813,279.4043 Q535.2813,279.9824 534.4844,280.3105 Q533.4063,280.7637 532.1094,280.7637 Q530.5938,280.7637 529.3906,280.1387 Q528.4063,279.6387 527.7188,278.5762 Q527.0313,277.498 527.0313,276.2168 L527.0313,275.0605 Q527.0313,273.7324 527.6406,272.5918 Q528.2656,271.4355 529.3594,270.8262 Q530.4531,270.2012 531.6875,270.2012 Q532.4219,270.2012 533.0625,270.373 Q533.7188,270.5293 534.2656,270.8887 Z " fill="#000000"/><text fill="#000000" font-family="sans-serif" font-size="14" lengthAdjust="spacing" textLength="125" x="545.5" y="280.8105">LatestPlacesActivity</text><line style="stroke:#181818;stroke-width:0.5;" x1="517.5" x2="672.5" y1="291.0137" y2="291.0137"/><line style="stroke:#181818;stroke-width:0.5;" x1="517.5" x2="672.5" y1="299.0137" y2="299.0137"/></g><!--MD5=[88972fbe0f72fe9fe011e7ec92afea54]
class MapsActivity--><g id="elem_MapsActivity"><rect codeLine="17" fill="#F1F1F1" height="48" id="MapsActivity" rx="2.5" ry="2.5" style="stroke:#181818;stroke-width:0.5;" width="110" x="709" y="259.0137"/><ellipse cx="724" cy="275.0137" fill="#ADD1B2" rx="11" ry="11" style="stroke:#181818;stroke-width:1.0;"/><path d="M726.7656,270.8887 Q726.9219,270.6699 727.1094,270.5605 Q727.2969,270.4512 727.5156,270.4512 Q727.8906,270.4512 728.125,270.7168 Q728.3594,270.9668 728.3594,271.5762 L728.3594,273.0293 Q728.3594,273.6387 728.125,273.9043 Q727.8906,274.1699 727.5156,274.1699 Q727.1719,274.1699 726.9688,273.9668 Q726.7656,273.7793 726.6563,273.2637 Q726.6094,272.9043 726.4219,272.7168 Q726.0938,272.3418 725.4844,272.123 Q724.875,271.9043 724.25,271.9043 Q723.4844,271.9043 722.8438,272.2324 Q722.2188,272.5605 721.7188,273.3105 Q721.2344,274.0605 721.2344,275.0918 L721.2344,276.1855 Q721.2344,277.4199 722.125,278.248 Q723.0156,279.0605 724.6094,279.0605 Q725.5469,279.0605 726.2031,278.8105 Q726.5938,278.6543 727.0156,278.2168 Q727.2813,277.9512 727.4219,277.873 Q727.5781,277.7949 727.7813,277.7949 Q728.1094,277.7949 728.3594,278.0605 Q728.625,278.3105 728.625,278.6543 Q728.625,278.998 728.2813,279.4043 Q727.7813,279.9824 726.9844,280.3105 Q725.9063,280.7637 724.6094,280.7637 Q723.0938,280.7637 721.8906,280.1387 Q720.9063,279.6387 720.2188,278.5762 Q719.5313,277.498 719.5313,276.2168 L719.5313,275.0605 Q719.5313,273.7324 720.1406,272.5918 Q720.7656,271.4355 721.8594,270.8262 Q722.9531,270.2012 724.1875,270.2012 Q724.9219,270.2012 725.5625,270.373 Q726.2188,270.5293 726.7656,270.8887 Z " fill="#000000"/><text fill="#000000" font-family="sans-serif" font-size="14" lengthAdjust="spacing" textLength="78" x="738" y="280.8105">MapsActivity</text><line style="stroke:#181818;stroke-width:0.5;" x1="710" x2="818" y1="291.0137" y2="291.0137"/><line style="stroke:#181818;stroke-width:0.5;" x1="710" x2="818" y1="299.0137" y2="299.0137"/></g><!--MD5=[2fea5cc2d04d18f75896a3b4d507ec3b]
class MenuActivity--><g id="elem_MenuActivity"><rect codeLine="20" fill="#F1F1F1" height="48" id="MenuActivity" rx="2.5" ry="2.5" style="stroke:#181818;stroke-width:0.5;" width="111" x="893.5" y="151.0137"/><ellipse cx="908.5" cy="167.0137" fill="#ADD1B2" rx="11" ry="11" style="stroke:#181818;stroke-width:1.0;"/><path d="M911.2656,162.8887 Q911.4219,162.6699 911.6094,162.5605 Q911.7969,162.4512 912.0156,162.4512 Q912.3906,162.4512 912.625,162.7168 Q912.8594,162.9668 912.8594,163.5762 L912.8594,165.0293 Q912.8594,165.6387 912.625,165.9043 Q912.3906,166.1699 912.0156,166.1699 Q911.6719,166.1699 911.4688,165.9668 Q911.2656,165.7793 911.1563,165.2637 Q911.1094,164.9043 910.9219,164.7168 Q910.5938,164.3418 909.9844,164.123 Q909.375,163.9043 908.75,163.9043 Q907.9844,163.9043 907.3438,164.2324 Q906.7188,164.5605 906.2188,165.3105 Q905.7344,166.0605 905.7344,167.0918 L905.7344,168.1855 Q905.7344,169.4199 906.625,170.248 Q907.5156,171.0605 909.1094,171.0605 Q910.0469,171.0605 910.7031,170.8105 Q911.0938,170.6543 911.5156,170.2168 Q911.7813,169.9512 911.9219,169.873 Q912.0781,169.7949 912.2813,169.7949 Q912.6094,169.7949 912.8594,170.0605 Q913.125,170.3105 913.125,170.6543 Q913.125,170.998 912.7813,171.4043 Q912.2813,171.9824 911.4844,172.3105 Q910.4063,172.7637 909.1094,172.7637 Q907.5938,172.7637 906.3906,172.1387 Q905.4063,171.6387 904.7188,170.5762 Q904.0313,169.498 904.0313,168.2168 L904.0313,167.0605 Q904.0313,165.7324 904.6406,164.5918 Q905.2656,163.4355 906.3594,162.8262 Q907.4531,162.2012 908.6875,162.2012 Q909.4219,162.2012 910.0625,162.373 Q910.7188,162.5293 911.2656,162.8887 Z " fill="#000000"/><text fill="#000000" font-family="sans-serif" font-size="14" lengthAdjust="spacing" textLength="79" x="922.5" y="172.8105">MenuActivity</text><line style="stroke:#181818;stroke-width:0.5;" x1="894.5" x2="1003.5" y1="183.0137" y2="183.0137"/><line style="stroke:#181818;stroke-width:0.5;" x1="894.5" x2="1003.5" y1="191.0137" y2="191.0137"/></g><!--MD5=[aedb4afb7a1c9f98f0a4317a7de75644]
class NotificationsActivity--><g id="elem_NotificationsActivity"><rect codeLine="23" fill="#F1F1F1" height="48" id="NotificationsActivity" rx="2.5" ry="2.5" style="stroke:#181818;stroke-width:0.5;" width="152" x="854" y="259.0137"/><ellipse cx="869" cy="275.0137" fill="#ADD1B2" rx="11" ry="11" style="stroke:#181818;stroke-width:1.0;"/><path d="M871.7656,270.8887 Q871.9219,270.6699 872.1094,270.5605 Q872.2969,270.4512 872.5156,270.4512 Q872.8906,270.4512 873.125,270.7168 Q873.3594,270.9668 873.3594,271.5762 L873.3594,273.0293 Q873.3594,273.6387 873.125,273.9043 Q872.8906,274.1699 872.5156,274.1699 Q872.1719,274.1699 871.9688,273.9668 Q871.7656,273.7793 871.6563,273.2637 Q871.6094,272.9043 871.4219,272.7168 Q871.0938,272.3418 870.4844,272.123 Q869.875,271.9043 869.25,271.9043 Q868.4844,271.9043 867.8438,272.2324 Q867.2188,272.5605 866.7188,273.3105 Q866.2344,274.0605 866.2344,275.0918 L866.2344,276.1855 Q866.2344,277.4199 867.125,278.248 Q868.0156,279.0605 869.6094,279.0605 Q870.5469,279.0605 871.2031,278.8105 Q871.5938,278.6543 872.0156,278.2168 Q872.2813,277.9512 872.4219,277.873 Q872.5781,277.7949 872.7813,277.7949 Q873.1094,277.7949 873.3594,278.0605 Q873.625,278.3105 873.625,278.6543 Q873.625,278.998 873.2813,279.4043 Q872.7813,279.9824 871.9844,280.3105 Q870.9063,280.7637 869.6094,280.7637 Q868.0938,280.7637 866.8906,280.1387 Q865.9063,279.6387 865.2188,278.5762 Q864.5313,277.498 864.5313,276.2168 L864.5313,275.0605 Q864.5313,273.7324 865.1406,272.5918 Q865.7656,271.4355 866.8594,270.8262 Q867.9531,270.2012 869.1875,270.2012 Q869.9219,270.2012 870.5625,270.373 Q871.2188,270.5293 871.7656,270.8887 Z " fill="#000000"/><text fill="#000000" font-family="sans-serif" font-size="14" lengthAdjust="spacing" textLength="120" x="883" y="280.8105">NotificationsActivity</text><line style="stroke:#181818;stroke-width:0.5;" x1="855" x2="1005" y1="291.0137" y2="291.0137"/><line style="stroke:#181818;stroke-width:0.5;" x1="855" x2="1005" y1="299.0137" y2="299.0137"/></g><!--MD5=[2b7f6d2bc437ffa78eebd5bc4367ee60]
class PrivacyActivity--><g id="elem_PrivacyActivity"><rect codeLine="26" fill="#F1F1F1" height="48" id="PrivacyActivity" rx="2.5" ry="2.5" style="stroke:#181818;stroke-width:0.5;" width="122" x="888" y="43.0137"/><ellipse cx="903" cy="59.0137" fill="#ADD1B2" rx="11" ry="11" style="stroke:#181818;stroke-width:1.0;"/><path d="M905.7656,54.8887 Q905.9219,54.6699 906.1094,54.5605 Q906.2969,54.4512 906.5156,54.4512 Q906.8906,54.4512 907.125,54.7168 Q907.3594,54.9668 907.3594,55.5762 L907.3594,57.0293 Q907.3594,57.6387 907.125,57.9043 Q906.8906,58.1699 906.5156,58.1699 Q906.1719,58.1699 905.9688,57.9668 Q905.7656,57.7793 905.6563,57.2637 Q905.6094,56.9043 905.4219,56.7168 Q905.0938,56.3418 904.4844,56.123 Q903.875,55.9043 903.25,55.9043 Q902.4844,55.9043 901.8438,56.2324 Q901.2188,56.5605 900.7188,57.3105 Q900.2344,58.0605 900.2344,59.0918 L900.2344,60.1855 Q900.2344,61.4199 901.125,62.248 Q902.0156,63.0605 903.6094,63.0605 Q904.5469,63.0605 905.2031,62.8105 Q905.5938,62.6543 906.0156,62.2168 Q906.2813,61.9512 906.4219,61.873 Q906.5781,61.7949 906.7813,61.7949 Q907.1094,61.7949 907.3594,62.0605 Q907.625,62.3105 907.625,62.6543 Q907.625,62.998 907.2813,63.4043 Q906.7813,63.9824 905.9844,64.3105 Q904.9063,64.7637 903.6094,64.7637 Q902.0938,64.7637 900.8906,64.1387 Q899.9063,63.6387 899.2188,62.5762 Q898.5313,61.498 898.5313,60.2168 L898.5313,59.0605 Q898.5313,57.7324 899.1406,56.5918 Q899.7656,55.4355 900.8594,54.8262 Q901.9531,54.2012 903.1875,54.2012 Q903.9219,54.2012 904.5625,54.373 Q905.2188,54.5293 905.7656,54.8887 Z " fill="#000000"/><text fill="#000000" font-family="sans-serif" font-size="14" lengthAdjust="spacing" textLength="90" x="917" y="64.8105">PrivacyActivity</text><line style="stroke:#181818;stroke-width:0.5;" x1="889" x2="1009" y1="75.0137" y2="75.0137"/><line style="stroke:#181818;stroke-width:0.5;" x1="889" x2="1009" y1="83.0137" y2="83.0137"/></g><!--MD5=[234f2616f218729d7a9df686c9f4689d]
class SplashActivity--><g id="elem_SplashActivity"><rect codeLine="29" fill="#F1F1F1" height="48" id="SplashActivity" rx="2.5" ry="2.5" style="stroke:#181818;stroke-width:0.5;" width="119" x="733.5" y="43.0137"/><ellipse cx="748.5" cy="59.0137" fill="#ADD1B2" rx="11" ry="11" style="stroke:#181818;stroke-width:1.0;"/><path d="M751.2656,54.8887 Q751.4219,54.6699 751.6094,54.5605 Q751.7969,54.4512 752.0156,54.4512 Q752.3906,54.4512 752.625,54.7168 Q752.8594,54.9668 752.8594,55.5762 L752.8594,57.0293 Q752.8594,57.6387 752.625,57.9043 Q752.3906,58.1699 752.0156,58.1699 Q751.6719,58.1699 751.4688,57.9668 Q751.2656,57.7793 751.1563,57.2637 Q751.1094,56.9043 750.9219,56.7168 Q750.5938,56.3418 749.9844,56.123 Q749.375,55.9043 748.75,55.9043 Q747.9844,55.9043 747.3438,56.2324 Q746.7188,56.5605 746.2188,57.3105 Q745.7344,58.0605 745.7344,59.0918 L745.7344,60.1855 Q745.7344,61.4199 746.625,62.248 Q747.5156,63.0605 749.1094,63.0605 Q750.0469,63.0605 750.7031,62.8105 Q751.0938,62.6543 751.5156,62.2168 Q751.7813,61.9512 751.9219,61.873 Q752.0781,61.7949 752.2813,61.7949 Q752.6094,61.7949 752.8594,62.0605 Q753.125,62.3105 753.125,62.6543 Q753.125,62.998 752.7813,63.4043 Q752.2813,63.9824 751.4844,64.3105 Q750.4063,64.7637 749.1094,64.7637 Q747.5938,64.7637 746.3906,64.1387 Q745.4063,63.6387 744.7188,62.5762 Q744.0313,61.498 744.0313,60.2168 L744.0313,59.0605 Q744.0313,57.7324 744.6406,56.5918 Q745.2656,55.4355 746.3594,54.8262 Q747.4531,54.2012 748.6875,54.2012 Q749.4219,54.2012 750.0625,54.373 Q750.7188,54.5293 751.2656,54.8887 Z " fill="#000000"/><text fill="#000000" font-family="sans-serif" font-size="14" lengthAdjust="spacing" textLength="87" x="762.5" y="64.8105">SplashActivity</text><line style="stroke:#181818;stroke-width:0.5;" x1="734.5" x2="851.5" y1="75.0137" y2="75.0137"/><line style="stroke:#181818;stroke-width:0.5;" x1="734.5" x2="851.5" y1="83.0137" y2="83.0137"/></g><!--MD5=[4622fc7d73011995e62f6f82c4352364]
class UserListActivity--><g id="elem_UserListActivity"><rect codeLine="32" fill="#F1F1F1" height="48" id="UserListActivity" rx="2.5" ry="2.5" style="stroke:#181818;stroke-width:0.5;" width="127" x="1041.5" y="259.0137"/><ellipse cx="1056.5" cy="275.0137" fill="#ADD1B2" rx="11" ry="11" style="stroke:#181818;stroke-width:1.0;"/><path d="M1059.2656,270.8887 Q1059.4219,270.6699 1059.6094,270.5605 Q1059.7969,270.4512 1060.0156,270.4512 Q1060.3906,270.4512 1060.625,270.7168 Q1060.8594,270.9668 1060.8594,271.5762 L1060.8594,273.0293 Q1060.8594,273.6387 1060.625,273.9043 Q1060.3906,274.1699 1060.0156,274.1699 Q1059.6719,274.1699 1059.4688,273.9668 Q1059.2656,273.7793 1059.1563,273.2637 Q1059.1094,272.9043 1058.9219,272.7168 Q1058.5938,272.3418 1057.9844,272.123 Q1057.375,271.9043 1056.75,271.9043 Q1055.9844,271.9043 1055.3438,272.2324 Q1054.7188,272.5605 1054.2188,273.3105 Q1053.7344,274.0605 1053.7344,275.0918 L1053.7344,276.1855 Q1053.7344,277.4199 1054.625,278.248 Q1055.5156,279.0605 1057.1094,279.0605 Q1058.0469,279.0605 1058.7031,278.8105 Q1059.0938,278.6543 1059.5156,278.2168 Q1059.7813,277.9512 1059.9219,277.873 Q1060.0781,277.7949 1060.2813,277.7949 Q1060.6094,277.7949 1060.8594,278.0605 Q1061.125,278.3105 1061.125,278.6543 Q1061.125,278.998 1060.7813,279.4043 Q1060.2813,279.9824 1059.4844,280.3105 Q1058.4063,280.7637 1057.1094,280.7637 Q1055.5938,280.7637 1054.3906,280.1387 Q1053.4063,279.6387 1052.7188,278.5762 Q1052.0313,277.498 1052.0313,276.2168 L1052.0313,275.0605 Q1052.0313,273.7324 1052.6406,272.5918 Q1053.2656,271.4355 1054.3594,270.8262 Q1055.4531,270.2012 1056.6875,270.2012 Q1057.4219,270.2012 1058.0625,270.373 Q1058.7188,270.5293 1059.2656,270.8887 Z " fill="#000000"/><text fill="#000000" font-family="sans-serif" font-size="14" lengthAdjust="spacing" textLength="95" x="1070.5" y="280.8105">UserListActivity</text><line style="stroke:#181818;stroke-width:0.5;" x1="1042.5" x2="1167.5" y1="291.0137" y2="291.0137"/><line style="stroke:#181818;stroke-width:0.5;" x1="1042.5" x2="1167.5" y1="299.0137" y2="299.0137"/></g><!--MD5=[7c7034635aa9c92ffadc20fdc883fafd]
class Const--><g id="elem_Const"><rect codeLine="38" fill="#F1F1F1" height="48" id="Const" rx="2.5" ry="2.5" style="stroke:#181818;stroke-width:0.5;" width="69" x="1225.5" y="259.0137"/><ellipse cx="1240.5" cy="275.0137" fill="#ADD1B2" rx="11" ry="11" style="stroke:#181818;stroke-width:1.0;"/><path d="M1243.2656,270.8887 Q1243.4219,270.6699 1243.6094,270.5605 Q1243.7969,270.4512 1244.0156,270.4512 Q1244.3906,270.4512 1244.625,270.7168 Q1244.8594,270.9668 1244.8594,271.5762 L1244.8594,273.0293 Q1244.8594,273.6387 1244.625,273.9043 Q1244.3906,274.1699 1244.0156,274.1699 Q1243.6719,274.1699 1243.4688,273.9668 Q1243.2656,273.7793 1243.1563,273.2637 Q1243.1094,272.9043 1242.9219,272.7168 Q1242.5938,272.3418 1241.9844,272.123 Q1241.375,271.9043 1240.75,271.9043 Q1239.9844,271.9043 1239.3438,272.2324 Q1238.7188,272.5605 1238.2188,273.3105 Q1237.7344,274.0605 1237.7344,275.0918 L1237.7344,276.1855 Q1237.7344,277.4199 1238.625,278.248 Q1239.5156,279.0605 1241.1094,279.0605 Q1242.0469,279.0605 1242.7031,278.8105 Q1243.0938,278.6543 1243.5156,278.2168 Q1243.7813,277.9512 1243.9219,277.873 Q1244.0781,277.7949 1244.2813,277.7949 Q1244.6094,277.7949 1244.8594,278.0605 Q1245.125,278.3105 1245.125,278.6543 Q1245.125,278.998 1244.7813,279.4043 Q1244.2813,279.9824 1243.4844,280.3105 Q1242.4063,280.7637 1241.1094,280.7637 Q1239.5938,280.7637 1238.3906,280.1387 Q1237.4063,279.6387 1236.7188,278.5762 Q1236.0313,277.498 1236.0313,276.2168 L1236.0313,275.0605 Q1236.0313,273.7324 1236.6406,272.5918 Q1237.2656,271.4355 1238.3594,270.8262 Q1239.4531,270.2012 1240.6875,270.2012 Q1241.4219,270.2012 1242.0625,270.373 Q1242.7188,270.5293 1243.2656,270.8887 Z " fill="#000000"/><text fill="#000000" font-family="sans-serif" font-size="14" lengthAdjust="spacing" textLength="37" x="1254.5" y="280.8105">Const</text><line style="stroke:#181818;stroke-width:0.5;" x1="1226.5" x2="1293.5" y1="291.0137" y2="291.0137"/><line style="stroke:#181818;stroke-width:0.5;" x1="1226.5" x2="1293.5" y1="299.0137" y2="299.0137"/></g><!--MD5=[986945877420eb88e09633417d37ad64]
class RateDialog--><g id="elem_RateDialog"><rect codeLine="44" fill="#F1F1F1" height="48" id="RateDialog" rx="2.5" ry="2.5" style="stroke:#181818;stroke-width:0.5;" width="102" x="1454" y="259.0137"/><ellipse cx="1469" cy="275.0137" fill="#ADD1B2" rx="11" ry="11" style="stroke:#181818;stroke-width:1.0;"/><path d="M1471.7656,270.8887 Q1471.9219,270.6699 1472.1094,270.5605 Q1472.2969,270.4512 1472.5156,270.4512 Q1472.8906,270.4512 1473.125,270.7168 Q1473.3594,270.9668 1473.3594,271.5762 L1473.3594,273.0293 Q1473.3594,273.6387 1473.125,273.9043 Q1472.8906,274.1699 1472.5156,274.1699 Q1472.1719,274.1699 1471.9688,273.9668 Q1471.7656,273.7793 1471.6563,273.2637 Q1471.6094,272.9043 1471.4219,272.7168 Q1471.0938,272.3418 1470.4844,272.123 Q1469.875,271.9043 1469.25,271.9043 Q1468.4844,271.9043 1467.8438,272.2324 Q1467.2188,272.5605 1466.7188,273.3105 Q1466.2344,274.0605 1466.2344,275.0918 L1466.2344,276.1855 Q1466.2344,277.4199 1467.125,278.248 Q1468.0156,279.0605 1469.6094,279.0605 Q1470.5469,279.0605 1471.2031,278.8105 Q1471.5938,278.6543 1472.0156,278.2168 Q1472.2813,277.9512 1472.4219,277.873 Q1472.5781,277.7949 1472.7813,277.7949 Q1473.1094,277.7949 1473.3594,278.0605 Q1473.625,278.3105 1473.625,278.6543 Q1473.625,278.998 1473.2813,279.4043 Q1472.7813,279.9824 1471.9844,280.3105 Q1470.9063,280.7637 1469.6094,280.7637 Q1468.0938,280.7637 1466.8906,280.1387 Q1465.9063,279.6387 1465.2188,278.5762 Q1464.5313,277.498 1464.5313,276.2168 L1464.5313,275.0605 Q1464.5313,273.7324 1465.1406,272.5918 Q1465.7656,271.4355 1466.8594,270.8262 Q1467.9531,270.2012 1469.1875,270.2012 Q1469.9219,270.2012 1470.5625,270.373 Q1471.2188,270.5293 1471.7656,270.8887 Z " fill="#000000"/><text fill="#000000" font-family="sans-serif" font-size="14" lengthAdjust="spacing" textLength="70" x="1483" y="280.8105">RateDialog</text><line style="stroke:#181818;stroke-width:0.5;" x1="1455" x2="1555" y1="291.0137" y2="291.0137"/><line style="stroke:#181818;stroke-width:0.5;" x1="1455" x2="1555" y1="299.0137" y2="299.0137"/></g><!--MD5=[76b5e19c9337179d2d7ae334371d68c8]
class Notification--><g id="elem_Notification"><rect codeLine="50" fill="#F1F1F1" height="48" id="Notification" rx="2.5" ry="2.5" style="stroke:#181818;stroke-width:0.5;" width="101" x="1840.5" y="259.0137"/><ellipse cx="1855.5" cy="275.0137" fill="#ADD1B2" rx="11" ry="11" style="stroke:#181818;stroke-width:1.0;"/><path d="M1858.2656,270.8887 Q1858.4219,270.6699 1858.6094,270.5605 Q1858.7969,270.4512 1859.0156,270.4512 Q1859.3906,270.4512 1859.625,270.7168 Q1859.8594,270.9668 1859.8594,271.5762 L1859.8594,273.0293 Q1859.8594,273.6387 1859.625,273.9043 Q1859.3906,274.1699 1859.0156,274.1699 Q1858.6719,274.1699 1858.4688,273.9668 Q1858.2656,273.7793 1858.1563,273.2637 Q1858.1094,272.9043 1857.9219,272.7168 Q1857.5938,272.3418 1856.9844,272.123 Q1856.375,271.9043 1855.75,271.9043 Q1854.9844,271.9043 1854.3438,272.2324 Q1853.7188,272.5605 1853.2188,273.3105 Q1852.7344,274.0605 1852.7344,275.0918 L1852.7344,276.1855 Q1852.7344,277.4199 1853.625,278.248 Q1854.5156,279.0605 1856.1094,279.0605 Q1857.0469,279.0605 1857.7031,278.8105 Q1858.0938,278.6543 1858.5156,278.2168 Q1858.7813,277.9512 1858.9219,277.873 Q1859.0781,277.7949 1859.2813,277.7949 Q1859.6094,277.7949 1859.8594,278.0605 Q1860.125,278.3105 1860.125,278.6543 Q1860.125,278.998 1859.7813,279.4043 Q1859.2813,279.9824 1858.4844,280.3105 Q1857.4063,280.7637 1856.1094,280.7637 Q1854.5938,280.7637 1853.3906,280.1387 Q1852.4063,279.6387 1851.7188,278.5762 Q1851.0313,277.498 1851.0313,276.2168 L1851.0313,275.0605 Q1851.0313,273.7324 1851.6406,272.5918 Q1852.2656,271.4355 1853.3594,270.8262 Q1854.4531,270.2012 1855.6875,270.2012 Q1856.4219,270.2012 1857.0625,270.373 Q1857.7188,270.5293 1858.2656,270.8887 Z " fill="#000000"/><text fill="#000000" font-family="sans-serif" font-size="14" lengthAdjust="spacing" textLength="69" x="1869.5" y="280.8105">Notification</text><line style="stroke:#181818;stroke-width:0.5;" x1="1841.5" x2="1940.5" y1="291.0137" y2="291.0137"/><line style="stroke:#181818;stroke-width:0.5;" x1="1841.5" x2="1940.5" y1="299.0137" y2="299.0137"/></g><!--MD5=[8515a37c80da559ff7ce07f8a9e75d30]
class Place--><g id="elem_Place"><rect codeLine="53" fill="#F1F1F1" height="48" id="Place" rx="2.5" ry="2.5" style="stroke:#181818;stroke-width:0.5;" width="67" x="1738.5" y="259.0137"/><ellipse cx="1753.5" cy="275.0137" fill="#ADD1B2" rx="11" ry="11" style="stroke:#181818;stroke-width:1.0;"/><path d="M1756.2656,270.8887 Q1756.4219,270.6699 1756.6094,270.5605 Q1756.7969,270.4512 1757.0156,270.4512 Q1757.3906,270.4512 1757.625,270.7168 Q1757.8594,270.9668 1757.8594,271.5762 L1757.8594,273.0293 Q1757.8594,273.6387 1757.625,273.9043 Q1757.3906,274.1699 1757.0156,274.1699 Q1756.6719,274.1699 1756.4688,273.9668 Q1756.2656,273.7793 1756.1563,273.2637 Q1756.1094,272.9043 1755.9219,272.7168 Q1755.5938,272.3418 1754.9844,272.123 Q1754.375,271.9043 1753.75,271.9043 Q1752.9844,271.9043 1752.3438,272.2324 Q1751.7188,272.5605 1751.2188,273.3105 Q1750.7344,274.0605 1750.7344,275.0918 L1750.7344,276.1855 Q1750.7344,277.4199 1751.625,278.248 Q1752.5156,279.0605 1754.1094,279.0605 Q1755.0469,279.0605 1755.7031,278.8105 Q1756.0938,278.6543 1756.5156,278.2168 Q1756.7813,277.9512 1756.9219,277.873 Q1757.0781,277.7949 1757.2813,277.7949 Q1757.6094,277.7949 1757.8594,278.0605 Q1758.125,278.3105 1758.125,278.6543 Q1758.125,278.998 1757.7813,279.4043 Q1757.2813,279.9824 1756.4844,280.3105 Q1755.4063,280.7637 1754.1094,280.7637 Q1752.5938,280.7637 1751.3906,280.1387 Q1750.4063,279.6387 1749.7188,278.5762 Q1749.0313,277.498 1749.0313,276.2168 L1749.0313,275.0605 Q1749.0313,273.7324 1749.6406,272.5918 Q1750.2656,271.4355 1751.3594,270.8262 Q1752.4531,270.2012 1753.6875,270.2012 Q1754.4219,270.2012 1755.0625,270.373 Q1755.7188,270.5293 1756.2656,270.8887 Z " fill="#000000"/><text fill="#000000" font-family="sans-serif" font-size="14" lengthAdjust="spacing" textLength="35" x="1767.5" y="280.8105">Place</text><line style="stroke:#181818;stroke-width:0.5;" x1="1739.5" x2="1804.5" y1="291.0137" y2="291.0137"/><line style="stroke:#181818;stroke-width:0.5;" x1="1739.5" x2="1804.5" y1="299.0137" y2="299.0137"/></g><!--MD5=[772a1b0791aca9f8953f90da3f17f055]
class AppRater--><g id="elem_AppRater"><rect codeLine="59" fill="#F1F1F1" height="48" id="AppRater" rx="2.5" ry="2.5" style="stroke:#181818;stroke-width:0.5;" width="92" x="2022" y="259.0137"/><ellipse cx="2037" cy="275.0137" fill="#ADD1B2" rx="11" ry="11" style="stroke:#181818;stroke-width:1.0;"/><path d="M2039.7656,270.8887 Q2039.9219,270.6699 2040.1094,270.5605 Q2040.2969,270.4512 2040.5156,270.4512 Q2040.8906,270.4512 2041.125,270.7168 Q2041.3594,270.9668 2041.3594,271.5762 L2041.3594,273.0293 Q2041.3594,273.6387 2041.125,273.9043 Q2040.8906,274.1699 2040.5156,274.1699 Q2040.1719,274.1699 2039.9688,273.9668 Q2039.7656,273.7793 2039.6563,273.2637 Q2039.6094,272.9043 2039.4219,272.7168 Q2039.0938,272.3418 2038.4844,272.123 Q2037.875,271.9043 2037.25,271.9043 Q2036.4844,271.9043 2035.8438,272.2324 Q2035.2188,272.5605 2034.7188,273.3105 Q2034.2344,274.0605 2034.2344,275.0918 L2034.2344,276.1855 Q2034.2344,277.4199 2035.125,278.248 Q2036.0156,279.0605 2037.6094,279.0605 Q2038.5469,279.0605 2039.2031,278.8105 Q2039.5938,278.6543 2040.0156,278.2168 Q2040.2813,277.9512 2040.4219,277.873 Q2040.5781,277.7949 2040.7813,277.7949 Q2041.1094,277.7949 2041.3594,278.0605 Q2041.625,278.3105 2041.625,278.6543 Q2041.625,278.998 2041.2813,279.4043 Q2040.7813,279.9824 2039.9844,280.3105 Q2038.9063,280.7637 2037.6094,280.7637 Q2036.0938,280.7637 2034.8906,280.1387 Q2033.9063,279.6387 2033.2188,278.5762 Q2032.5313,277.498 2032.5313,276.2168 L2032.5313,275.0605 Q2032.5313,273.7324 2033.1406,272.5918 Q2033.7656,271.4355 2034.8594,270.8262 Q2035.9531,270.2012 2037.1875,270.2012 Q2037.9219,270.2012 2038.5625,270.373 Q2039.2188,270.5293 2039.7656,270.8887 Z " fill="#000000"/><text fill="#000000" font-family="sans-serif" font-size="14" lengthAdjust="spacing" textLength="60" x="2051" y="280.8105">AppRater</text><line style="stroke:#181818;stroke-width:0.5;" x1="2023" x2="2113" y1="291.0137" y2="291.0137"/><line style="stroke:#181818;stroke-width:0.5;" x1="2023" x2="2113" y1="299.0137" y2="299.0137"/></g><!--MD5=[6a9c638b74c89a2bb064a36d8709845d]
link IntroActivity to MenuActivity--><g id="link_IntroActivity_MenuActivity"><path codeLine="64" d="M1064.89,91.0137 C1040.15,108.7337 1006.09,133.1237 981.31,150.8737 " fill="none" id="IntroActivity-MenuActivity" style="stroke:#181818;stroke-width:1.0;"/></g><!--MD5=[3e23acdc08583a793c045b3a055d46ca]
link MenuActivity to DebugOptionsActivity--><g id="link_MenuActivity_DebugOptionsActivity"><path codeLine="65" d="M893.4,177.1437 C732.12,180.6737 271.43,192.5237 207,214.0137 C178.73,223.4437 150.96,243.1137 131.72,258.8837 " fill="none" id="MenuActivity-DebugOptionsActivity" style="stroke:#181818;stroke-width:1.0;"/></g><!--MD5=[4da9ba69183ed0e53494cfe2a5bcb7fe]
link MenuActivity to ExploreActivity--><g id="link_MenuActivity_ExploreActivity"><path codeLine="66" d="M893.44,177.6237 C757.01,181.8637 413.09,194.3637 365,214.0137 C341.55,223.5937 320.12,243.0337 305.52,258.6837 " fill="none" id="MenuActivity-ExploreActivity" style="stroke:#181818;stroke-width:1.0;"/></g><!--MD5=[9f94b72c19acf060bc211b4f77bf83c7]
link MenuActivity to InfoActivity--><g id="link_MenuActivity_InfoActivity"><path codeLine="67" d="M893.1,175.9437 C788.48,176.6037 567.5,181.8837 499,214.0137 C477.99,223.8637 459.92,243.2837 447.86,258.8537 " fill="none" id="MenuActivity-InfoActivity" style="stroke:#181818;stroke-width:1.0;"/></g><!--MD5=[3dfcbd9435089391be68079dc29bf3bd]
link MenuActivity to LatestPlacesActivity--><g id="link_MenuActivity_LatestPlacesActivity"><path codeLine="68" d="M893.45,176.8837 C840.06,179.4037 757.99,187.7237 692,214.0137 C665.63,224.5137 639.51,243.4537 621.02,258.6837 " fill="none" id="MenuActivity-LatestPlacesActivity" style="stroke:#181818;stroke-width:1.0;"/></g><!--MD5=[119ba0284de49822bb09dcc0ab178ff0]
link MenuActivity to MapsActivity--><g id="link_MenuActivity_MapsActivity"><path codeLine="69" d="M893.41,189.7737 C874.74,195.7037 854.27,203.6937 837,214.0137 C816.93,226.0037 797.72,244.2637 784.06,258.8337 " fill="none" id="MenuActivity-MapsActivity" style="stroke:#181818;stroke-width:1.0;"/></g><!--MD5=[d2ee15241bdc1bd895c1a2b02d48ad8a]
link MenuActivity to NotificationsActivity--><g id="link_MenuActivity_NotificationsActivity"><path codeLine="70" d="M944.88,199.0137 C941.71,216.6737 937.36,240.9537 934.18,258.6937 " fill="none" id="MenuActivity-NotificationsActivity" style="stroke:#181818;stroke-width:1.0;"/></g><!--MD5=[eda37defe203e87a80e976751565b712]
link MenuActivity to UserListActivity--><g id="link_MenuActivity_UserListActivity"><path codeLine="71" d="M998.73,199.1737 C1007.35,203.7637 1016.08,208.7837 1024,214.0137 C1044.22,227.3737 1065.13,245.0337 1080.63,259.0037 " fill="none" id="MenuActivity-UserListActivity" style="stroke:#181818;stroke-width:1.0;"/></g><!--MD5=[77c42818d2d92977f51e2b2bc2e66324]
link MenuActivity to Const--><g id="link_MenuActivity_Const"><path codeLine="72" d="M1004.59,176.1337 C1054.17,178.2537 1127.59,186.4137 1185,214.0137 C1206.86,224.5237 1226.95,243.4637 1240.82,258.6837 " fill="none" id="MenuActivity-Const" style="stroke:#181818;stroke-width:1.0;"/></g><!--MD5=[6b8d10296311a129c78f4ae4bc700ae3]
link MenuActivity to RateDialog--><g id="link_MenuActivity_RateDialog"><path codeLine="73" d="M1004.53,177.8437 C1076.15,181.1037 1204.18,190.0337 1311,214.0137 C1360.62,225.1537 1415.11,244.9637 1453.67,260.3337 " fill="none" id="MenuActivity-RateDialog" style="stroke:#181818;stroke-width:1.0;"/></g><!--MD5=[87d5fe78714f824bb709b57f86a748a1]
link MenuActivity to Notification--><g id="link_MenuActivity_Notification"><path codeLine="74" d="M1004.58,176.1037 C1185.23,176.7037 1748.45,181.2137 1823,214.0137 C1844.55,223.4937 1862.99,243.1537 1875.21,258.9137 " fill="none" id="MenuActivity-Notification" style="stroke:#181818;stroke-width:1.0;"/></g><!--MD5=[ff6389746058f4fc7459fa157be7be08]
link MenuActivity to Place--><g id="link_MenuActivity_Place"><path codeLine="75" d="M1004.66,177.5037 C1136.38,181.3537 1464.22,192.8037 1572,214.0137 C1632.27,225.8737 1699.29,251.3237 1738.43,267.5037 " fill="none" id="MenuActivity-Place" style="stroke:#181818;stroke-width:1.0;"/></g><!--MD5=[f6ffdfe6d1c10d68a8a532e0f89d77b3]
link MenuActivity to AppRater--><g id="link_MenuActivity_AppRater"><path codeLine="76" d="M1004.75,176.4537 C1203.01,178.2437 1866.87,186.2537 1958,214.0137 C1988.28,223.2337 2018.58,242.9337 2039.68,258.7637 " fill="none" id="MenuActivity-AppRater" style="stroke:#181818;stroke-width:1.0;"/></g><!--MD5=[f793045aaa3752dd68bfa92accd735c6]
link PrivacyActivity to MenuActivity--><g id="link_PrivacyActivity_MenuActivity"><path codeLine="77" d="M949,91.0137 C949,108.6737 949,132.9537 949,150.6937 " fill="none" id="PrivacyActivity-MenuActivity" style="stroke:#181818;stroke-width:1.0;"/></g><!--MD5=[632cfce0c15afd9f2d3bbb51aae99749]
link SplashActivity to MenuActivity--><g id="link_SplashActivity_MenuActivity"><path codeLine="78" d="M826.85,91.0137 C852.93,108.7337 888.82,133.1237 914.95,150.8737 " fill="none" id="SplashActivity-MenuActivity" style="stroke:#181818;stroke-width:1.0;"/></g><!--MD5=[7be0ed4142df1e80974bb7e87f6746d3]
@startuml
package com.niceplaces.niceplaces.activities {
class DebugOptionsActivity {
}

class ExploreActivity {
}

class InfoActivity {
}

class IntroActivity {
}

class LatestPlacesActivity {
}

class MapsActivity {
}

class MenuActivity {
}

class NotificationsActivity {
}

class PrivacyActivity {
}

class SplashActivity {
}

class UserListActivity {
}

}

package com.niceplaces.niceplaces {
class Const {
}

}

package com.niceplaces.niceplaces.dialogs {
class RateDialog {
}

}

package com.niceplaces.niceplaces.models {
class Notification {
}

class Place {
}

}

package com.niceplaces.niceplaces.utils {
class AppRater {
}

}

IntroActivity - - MenuActivity
MenuActivity - - DebugOptionsActivity
MenuActivity - - ExploreActivity
MenuActivity - - InfoActivity
MenuActivity - - LatestPlacesActivity
MenuActivity - - MapsActivity
MenuActivity - - NotificationsActivity
MenuActivity - - UserListActivity
MenuActivity - - Const
MenuActivity - - RateDialog
MenuActivity - - Notification
MenuActivity - - Place
MenuActivity - - AppRater
PrivacyActivity - - MenuActivity
SplashActivity - - MenuActivity
@enduml

PlantUML version 1.2022.13(Sat Nov 19 14:22:17 CET 2022)
(GPL source distribution)
Java Runtime: OpenJDK Runtime Environment
JVM: OpenJDK 64-Bit Server VM
Default Encoding: Cp1252
Language: it
Country: IT
--></g></svg>