<?xml version="1.0" encoding="UTF-8" standalone="no"?><svg xmlns="http://www.w3.org/2000/svg" xmlns:xlink="http://www.w3.org/1999/xlink" contentStyleType="text/css" height="878.7px" preserveAspectRatio="none" style="width:958px;height:878px;background:#FFFFFF;" version="1.1" viewBox="0 0 958 878" width="958.49px" zoomAndPan="magnify"><defs/><g><!--MD5=[cf5968f78efcd14bbe5a64ac28b2d07f]
cluster com.niceplaces.niceplaces.activities--><g id="cluster_com.niceplaces.niceplaces.activities"><path d="M8.585,6.0738 L269.165,6.0738 A3.7875,3.7875 0 0 1 271.69,8.5988 L278.76,30.9411 L948.895,30.9411 A2.525,2.525 0 0 1 951.42,33.4661 L951.42,869.1188 A2.525,2.525 0 0 1 948.895,871.6438 L8.585,871.6438 A2.525,2.525 0 0 1 6.06,869.1188 L6.06,8.5988 A2.525,2.525 0 0 1 8.585,6.0738 " fill="none" style="stroke:#000000;stroke-width:1.5150000000000001;"/><line style="stroke:#000000;stroke-width:1.5150000000000001;" x1="6.06" x2="278.76" y1="30.9411" y2="30.9411"/><text fill="#000000" font-family="sans-serif" font-size="14.14" font-weight="bold" lengthAdjust="spacing" textLength="259.57" x="10.1" y="23.3523">com.niceplaces.niceplaces.activities</text></g><!--MD5=[f573adc8c3423b8c115b21c851da9f5b]
class AreaIntroActivity--><g id="elem_AreaIntroActivity"><rect codeLine="2" fill="#F1F1F1" height="48.48" id="AreaIntroActivity" rx="2.525" ry="2.525" style="stroke:#181818;stroke-width:0.505;" width="135.34" x="799.92" y="43.4438"/><ellipse cx="815.07" cy="59.6038" fill="#ADD1B2" rx="11.11" ry="11.11" style="stroke:#181818;stroke-width:1.01;"/><path d="M817.8633,55.4376 Q818.0211,55.2166 818.2105,55.1062 Q818.3998,54.9957 818.6208,54.9957 Q818.9995,54.9957 819.2363,55.264 Q819.473,55.5165 819.473,56.1319 L819.473,57.5996 Q819.473,58.2151 819.2363,58.4833 Q818.9995,58.7516 818.6208,58.7516 Q818.2736,58.7516 818.0684,58.5465 Q817.8633,58.3571 817.7528,57.8363 Q817.7055,57.4733 817.5161,57.284 Q817.1847,56.9052 816.5692,56.6843 Q815.9538,56.4633 815.3225,56.4633 Q814.5492,56.4633 813.9022,56.7947 Q813.2709,57.1262 812.7659,57.8837 Q812.2767,58.6412 812.2767,59.6827 L812.2767,60.7874 Q812.2767,62.0341 813.1763,62.8705 Q814.0758,63.6912 815.6855,63.6912 Q816.6323,63.6912 817.2952,63.4387 Q817.6897,63.2808 818.1158,62.839 Q818.3841,62.5707 818.5261,62.4918 Q818.6839,62.4129 818.8891,62.4129 Q819.2205,62.4129 819.473,62.6812 Q819.7413,62.9337 819.7413,63.2808 Q819.7413,63.628 819.3941,64.0383 Q818.8891,64.6222 818.0842,64.9537 Q816.9953,65.4113 815.6855,65.4113 Q814.1547,65.4113 812.9395,64.7801 Q811.9453,64.2751 811.2509,63.2019 Q810.5566,62.113 810.5566,60.819 L810.5566,59.6512 Q810.5566,58.3097 811.172,57.1577 Q811.8033,55.9899 812.908,55.3744 Q814.0127,54.7432 815.2594,54.7432 Q816.0011,54.7432 816.6481,54.9168 Q817.3109,55.0746 817.8633,55.4376 Z " fill="#000000"/><text fill="#000000" font-family="sans-serif" font-size="14.14" lengthAdjust="spacing" textLength="103.02" x="829.21" y="65.4587">AreaIntroActivity</text><line style="stroke:#181818;stroke-width:0.505;" x1="800.93" x2="934.25" y1="75.7638" y2="75.7638"/><line style="stroke:#181818;stroke-width:0.505;" x1="800.93" x2="934.25" y1="83.8438" y2="83.8438"/></g><!--MD5=[4f30bc275d98224e2bb67a83e62b8aeb]
class AreasListActivity--><g id="elem_AreasListActivity"><rect codeLine="5" fill="#F1F1F1" height="48.48" id="AreasListActivity" rx="2.525" ry="2.525" style="stroke:#181818;stroke-width:0.505;" width="136.35" x="761.035" y="588.8438"/><ellipse cx="776.185" cy="605.0038" fill="#ADD1B2" rx="11.11" ry="11.11" style="stroke:#181818;stroke-width:1.01;"/><path d="M778.9783,600.8376 Q779.1361,600.6166 779.3255,600.5062 Q779.5148,600.3957 779.7358,600.3957 Q780.1145,600.3957 780.3513,600.664 Q780.588,600.9165 780.588,601.5319 L780.588,602.9996 Q780.588,603.6151 780.3513,603.8833 Q780.1145,604.1516 779.7358,604.1516 Q779.3886,604.1516 779.1834,603.9465 Q778.9783,603.7571 778.8678,603.2363 Q778.8205,602.8733 778.6311,602.684 Q778.2997,602.3052 777.6842,602.0843 Q777.0688,601.8633 776.4375,601.8633 Q775.6642,601.8633 775.0172,602.1947 Q774.3859,602.5262 773.8809,603.2837 Q773.3917,604.0412 773.3917,605.0827 L773.3917,606.1874 Q773.3917,607.4341 774.2913,608.2705 Q775.1908,609.0912 776.8005,609.0912 Q777.7473,609.0912 778.4102,608.8387 Q778.8047,608.6808 779.2308,608.239 Q779.4991,607.9707 779.6411,607.8918 Q779.7989,607.8129 780.0041,607.8129 Q780.3355,607.8129 780.588,608.0812 Q780.8563,608.3337 780.8563,608.6808 Q780.8563,609.028 780.5091,609.4383 Q780.0041,610.0222 779.1992,610.3537 Q778.1103,610.8113 776.8005,610.8113 Q775.2697,610.8113 774.0545,610.1801 Q773.0603,609.6751 772.3659,608.6019 Q771.6716,607.513 771.6716,606.219 L771.6716,605.0512 Q771.6716,603.7097 772.287,602.5577 Q772.9183,601.3899 774.023,600.7744 Q775.1277,600.1432 776.3744,600.1432 Q777.1161,600.1432 777.7631,600.3168 Q778.4259,600.4746 778.9783,600.8376 Z " fill="#000000"/><text fill="#000000" font-family="sans-serif" font-size="14.14" lengthAdjust="spacing" textLength="104.03" x="790.325" y="610.8587">AreasListActivity</text><line style="stroke:#181818;stroke-width:0.505;" x1="762.045" x2="896.375" y1="621.1638" y2="621.1638"/><line style="stroke:#181818;stroke-width:0.505;" x1="762.045" x2="896.375" y1="629.2438" y2="629.2438"/></g><!--MD5=[0672d2aa12e0dc219073069b20edd970]
class DebugOptionsActivity--><g id="elem_DebugOptionsActivity"><rect codeLine="8" fill="#F1F1F1" height="48.48" id="DebugOptionsActivity" rx="2.525" ry="2.525" style="stroke:#181818;stroke-width:0.505;" width="168.67" x="248.965" y="479.7638"/><ellipse cx="264.115" cy="495.9238" fill="#ADD1B2" rx="11.11" ry="11.11" style="stroke:#181818;stroke-width:1.01;"/><path d="M266.9083,491.7576 Q267.0661,491.5366 267.2555,491.4262 Q267.4448,491.3157 267.6658,491.3157 Q268.0445,491.3157 268.2813,491.584 Q268.518,491.8365 268.518,492.4519 L268.518,493.9196 Q268.518,494.5351 268.2813,494.8033 Q268.0445,495.0716 267.6658,495.0716 Q267.3186,495.0716 267.1134,494.8665 Q266.9083,494.6771 266.7978,494.1563 Q266.7505,493.7933 266.5611,493.604 Q266.2297,493.2252 265.6142,493.0043 Q264.9988,492.7833 264.3675,492.7833 Q263.5942,492.7833 262.9472,493.1147 Q262.3159,493.4462 261.8109,494.2037 Q261.3217,494.9612 261.3217,496.0027 L261.3217,497.1074 Q261.3217,498.3541 262.2213,499.1905 Q263.1208,500.0112 264.7305,500.0112 Q265.6773,500.0112 266.3402,499.7587 Q266.7347,499.6008 267.1608,499.159 Q267.4291,498.8907 267.5711,498.8118 Q267.7289,498.7329 267.9341,498.7329 Q268.2655,498.7329 268.518,499.0012 Q268.7863,499.2537 268.7863,499.6008 Q268.7863,499.948 268.4391,500.3583 Q267.9341,500.9422 267.1292,501.2737 Q266.0403,501.7313 264.7305,501.7313 Q263.1997,501.7313 261.9845,501.1001 Q260.9903,500.5951 260.2959,499.5219 Q259.6016,498.433 259.6016,497.139 L259.6016,495.9712 Q259.6016,494.6297 260.217,493.4777 Q260.8483,492.3099 261.953,491.6944 Q263.0577,491.0632 264.3044,491.0632 Q265.0461,491.0632 265.6931,491.2368 Q266.3559,491.3946 266.9083,491.7576 Z " fill="#000000"/><text fill="#000000" font-family="sans-serif" font-size="14.14" lengthAdjust="spacing" textLength="136.35" x="278.255" y="501.7787">DebugOptionsActivity</text><line style="stroke:#181818;stroke-width:0.505;" x1="249.975" x2="416.625" y1="512.0838" y2="512.0838"/><line style="stroke:#181818;stroke-width:0.505;" x1="249.975" x2="416.625" y1="520.1638" y2="520.1638"/></g><!--MD5=[3cbc91592253287b97490780963bad64]
class ExploreActivity--><g id="elem_ExploreActivity"><rect codeLine="11" fill="#F1F1F1" height="48.48" id="ExploreActivity" rx="2.525" ry="2.525" style="stroke:#181818;stroke-width:0.505;" width="124.23" x="773.155" y="479.7638"/><ellipse cx="788.305" cy="495.9238" fill="#ADD1B2" rx="11.11" ry="11.11" style="stroke:#181818;stroke-width:1.01;"/><path d="M791.0983,491.7576 Q791.2561,491.5366 791.4455,491.4262 Q791.6348,491.3157 791.8558,491.3157 Q792.2345,491.3157 792.4713,491.584 Q792.708,491.8365 792.708,492.4519 L792.708,493.9196 Q792.708,494.5351 792.4713,494.8033 Q792.2345,495.0716 791.8558,495.0716 Q791.5086,495.0716 791.3034,494.8665 Q791.0983,494.6771 790.9878,494.1563 Q790.9405,493.7933 790.7511,493.604 Q790.4197,493.2252 789.8042,493.0043 Q789.1888,492.7833 788.5575,492.7833 Q787.7842,492.7833 787.1372,493.1147 Q786.5059,493.4462 786.0009,494.2037 Q785.5117,494.9612 785.5117,496.0027 L785.5117,497.1074 Q785.5117,498.3541 786.4113,499.1905 Q787.3108,500.0112 788.9205,500.0112 Q789.8673,500.0112 790.5302,499.7587 Q790.9247,499.6008 791.3508,499.159 Q791.6191,498.8907 791.7611,498.8118 Q791.9189,498.7329 792.1241,498.7329 Q792.4555,498.7329 792.708,499.0012 Q792.9763,499.2537 792.9763,499.6008 Q792.9763,499.948 792.6291,500.3583 Q792.1241,500.9422 791.3192,501.2737 Q790.2303,501.7313 788.9205,501.7313 Q787.3897,501.7313 786.1745,501.1001 Q785.1803,500.5951 784.4859,499.5219 Q783.7916,498.433 783.7916,497.139 L783.7916,495.9712 Q783.7916,494.6297 784.407,493.4777 Q785.0383,492.3099 786.143,491.6944 Q787.2477,491.0632 788.4944,491.0632 Q789.2361,491.0632 789.8831,491.2368 Q790.5459,491.3946 791.0983,491.7576 Z " fill="#000000"/><text fill="#000000" font-family="sans-serif" font-size="14.14" lengthAdjust="spacing" textLength="91.91" x="802.445" y="501.7787">ExploreActivity</text><line style="stroke:#181818;stroke-width:0.505;" x1="774.165" x2="896.375" y1="512.0838" y2="512.0838"/><line style="stroke:#181818;stroke-width:0.505;" x1="774.165" x2="896.375" y1="520.1638" y2="520.1638"/></g><!--MD5=[a7b5609dd1c28154c91e946db86144e4]
class InfoActivity--><g id="elem_InfoActivity"><rect codeLine="14" fill="#F1F1F1" height="48.48" id="InfoActivity" rx="2.525" ry="2.525" style="stroke:#181818;stroke-width:0.505;" width="99.99" x="637.815" y="479.7638"/><ellipse cx="652.965" cy="495.9238" fill="#ADD1B2" rx="11.11" ry="11.11" style="stroke:#181818;stroke-width:1.01;"/><path d="M655.7583,491.7576 Q655.9161,491.5366 656.1055,491.4262 Q656.2948,491.3157 656.5158,491.3157 Q656.8945,491.3157 657.1313,491.584 Q657.368,491.8365 657.368,492.4519 L657.368,493.9196 Q657.368,494.5351 657.1313,494.8033 Q656.8945,495.0716 656.5158,495.0716 Q656.1686,495.0716 655.9634,494.8665 Q655.7583,494.6771 655.6478,494.1563 Q655.6005,493.7933 655.4111,493.604 Q655.0797,493.2252 654.4642,493.0043 Q653.8488,492.7833 653.2175,492.7833 Q652.4442,492.7833 651.7972,493.1147 Q651.1659,493.4462 650.6609,494.2037 Q650.1717,494.9612 650.1717,496.0027 L650.1717,497.1074 Q650.1717,498.3541 651.0713,499.1905 Q651.9708,500.0112 653.5805,500.0112 Q654.5273,500.0112 655.1902,499.7587 Q655.5847,499.6008 656.0108,499.159 Q656.2791,498.8907 656.4211,498.8118 Q656.5789,498.7329 656.7841,498.7329 Q657.1155,498.7329 657.368,499.0012 Q657.6363,499.2537 657.6363,499.6008 Q657.6363,499.948 657.2891,500.3583 Q656.7841,500.9422 655.9792,501.2737 Q654.8903,501.7313 653.5805,501.7313 Q652.0497,501.7313 650.8345,501.1001 Q649.8403,500.5951 649.1459,499.5219 Q648.4516,498.433 648.4516,497.139 L648.4516,495.9712 Q648.4516,494.6297 649.067,493.4777 Q649.6983,492.3099 650.803,491.6944 Q651.9077,491.0632 653.1544,491.0632 Q653.8961,491.0632 654.5431,491.2368 Q655.2059,491.3946 655.7583,491.7576 Z " fill="#000000"/><text fill="#000000" font-family="sans-serif" font-size="14.14" lengthAdjust="spacing" textLength="67.67" x="667.105" y="501.7787">InfoActivity</text><line style="stroke:#181818;stroke-width:0.505;" x1="638.825" x2="736.795" y1="512.0838" y2="512.0838"/><line style="stroke:#181818;stroke-width:0.505;" x1="638.825" x2="736.795" y1="520.1638" y2="520.1638"/></g><!--MD5=[2dcaf8c73b9378152b5bc11ee5a81ba8]
class IntroActivity--><g id="elem_IntroActivity"><rect codeLine="17" fill="#F1F1F1" height="48.48" id="IntroActivity" rx="2.525" ry="2.525" style="stroke:#181818;stroke-width:0.505;" width="105.04" x="559.54" y="152.5238"/><ellipse cx="574.69" cy="168.6838" fill="#ADD1B2" rx="11.11" ry="11.11" style="stroke:#181818;stroke-width:1.01;"/><path d="M577.4833,164.5176 Q577.6411,164.2966 577.8305,164.1862 Q578.0198,164.0757 578.2408,164.0757 Q578.6195,164.0757 578.8563,164.344 Q579.093,164.5965 579.093,165.2119 L579.093,166.6796 Q579.093,167.2951 578.8563,167.5633 Q578.6195,167.8316 578.2408,167.8316 Q577.8936,167.8316 577.6884,167.6265 Q577.4833,167.4371 577.3728,166.9163 Q577.3255,166.5533 577.1361,166.364 Q576.8047,165.9852 576.1892,165.7643 Q575.5738,165.5433 574.9425,165.5433 Q574.1692,165.5433 573.5222,165.8747 Q572.8909,166.2062 572.3859,166.9637 Q571.8967,167.7212 571.8967,168.7627 L571.8967,169.8674 Q571.8967,171.1141 572.7963,171.9505 Q573.6958,172.7712 575.3055,172.7712 Q576.2523,172.7712 576.9152,172.5187 Q577.3097,172.3608 577.7358,171.919 Q578.0041,171.6507 578.1461,171.5718 Q578.3039,171.4929 578.5091,171.4929 Q578.8405,171.4929 579.093,171.7612 Q579.3613,172.0137 579.3613,172.3608 Q579.3613,172.708 579.0141,173.1183 Q578.5091,173.7022 577.7042,174.0337 Q576.6153,174.4913 575.3055,174.4913 Q573.7747,174.4913 572.5595,173.8601 Q571.5653,173.3551 570.8709,172.2819 Q570.1766,171.193 570.1766,169.899 L570.1766,168.7312 Q570.1766,167.3897 570.792,166.2377 Q571.4233,165.0699 572.528,164.4544 Q573.6327,163.8232 574.8794,163.8232 Q575.6211,163.8232 576.2681,163.9968 Q576.9309,164.1546 577.4833,164.5176 Z " fill="#000000"/><text fill="#000000" font-family="sans-serif" font-size="14.14" lengthAdjust="spacing" textLength="72.72" x="588.83" y="174.5387">IntroActivity</text><line style="stroke:#181818;stroke-width:0.505;" x1="560.55" x2="663.57" y1="184.8438" y2="184.8438"/><line style="stroke:#181818;stroke-width:0.505;" x1="560.55" x2="663.57" y1="192.9238" y2="192.9238"/></g><!--MD5=[df0078689b9c5a823c76e2c8dd3b2816]
class LatestPlacesActivity--><g id="elem_LatestPlacesActivity"><rect codeLine="20" fill="#F1F1F1" height="48.48" id="LatestPlacesActivity" rx="2.525" ry="2.525" style="stroke:#181818;stroke-width:0.505;" width="158.57" x="297.445" y="588.8438"/><ellipse cx="312.595" cy="605.0038" fill="#ADD1B2" rx="11.11" ry="11.11" style="stroke:#181818;stroke-width:1.01;"/><path d="M315.3883,600.8376 Q315.5461,600.6166 315.7355,600.5062 Q315.9248,600.3957 316.1458,600.3957 Q316.5245,600.3957 316.7613,600.664 Q316.998,600.9165 316.998,601.5319 L316.998,602.9996 Q316.998,603.6151 316.7613,603.8833 Q316.5245,604.1516 316.1458,604.1516 Q315.7986,604.1516 315.5934,603.9465 Q315.3883,603.7571 315.2778,603.2363 Q315.2305,602.8733 315.0411,602.684 Q314.7097,602.3052 314.0942,602.0843 Q313.4788,601.8633 312.8475,601.8633 Q312.0742,601.8633 311.4272,602.1947 Q310.7959,602.5262 310.2909,603.2837 Q309.8017,604.0412 309.8017,605.0827 L309.8017,606.1874 Q309.8017,607.4341 310.7013,608.2705 Q311.6008,609.0912 313.2105,609.0912 Q314.1573,609.0912 314.8202,608.8387 Q315.2147,608.6808 315.6408,608.239 Q315.9091,607.9707 316.0511,607.8918 Q316.2089,607.8129 316.4141,607.8129 Q316.7455,607.8129 316.998,608.0812 Q317.2663,608.3337 317.2663,608.6808 Q317.2663,609.028 316.9191,609.4383 Q316.4141,610.0222 315.6092,610.3537 Q314.5203,610.8113 313.2105,610.8113 Q311.6797,610.8113 310.4645,610.1801 Q309.4703,609.6751 308.7759,608.6019 Q308.0816,607.513 308.0816,606.219 L308.0816,605.0512 Q308.0816,603.7097 308.697,602.5577 Q309.3283,601.3899 310.433,600.7744 Q311.5377,600.1432 312.7844,600.1432 Q313.5261,600.1432 314.1731,600.3168 Q314.8359,600.4746 315.3883,600.8376 Z " fill="#000000"/><text fill="#000000" font-family="sans-serif" font-size="14.14" lengthAdjust="spacing" textLength="126.25" x="326.735" y="610.8587">LatestPlacesActivity</text><line style="stroke:#181818;stroke-width:0.505;" x1="298.455" x2="455.005" y1="621.1638" y2="621.1638"/><line style="stroke:#181818;stroke-width:0.505;" x1="298.455" x2="455.005" y1="629.2438" y2="629.2438"/></g><!--MD5=[f1fd5cf0be4c941a685df8ebaf3dbc35]
class LoginActivity--><g id="elem_LoginActivity"><rect codeLine="23" fill="#F1F1F1" height="48.48" id="LoginActivity" rx="2.525" ry="2.525" style="stroke:#181818;stroke-width:0.505;" width="112.11" x="651.955" y="43.4438"/><ellipse cx="667.105" cy="59.6038" fill="#ADD1B2" rx="11.11" ry="11.11" style="stroke:#181818;stroke-width:1.01;"/><path d="M669.8983,55.4376 Q670.0561,55.2166 670.2455,55.1062 Q670.4348,54.9957 670.6558,54.9957 Q671.0345,54.9957 671.2713,55.264 Q671.508,55.5165 671.508,56.1319 L671.508,57.5996 Q671.508,58.2151 671.2713,58.4833 Q671.0345,58.7516 670.6558,58.7516 Q670.3086,58.7516 670.1034,58.5465 Q669.8983,58.3571 669.7878,57.8363 Q669.7405,57.4733 669.5511,57.284 Q669.2197,56.9052 668.6042,56.6843 Q667.9888,56.4633 667.3575,56.4633 Q666.5842,56.4633 665.9372,56.7947 Q665.3059,57.1262 664.8009,57.8837 Q664.3117,58.6412 664.3117,59.6827 L664.3117,60.7874 Q664.3117,62.0341 665.2113,62.8705 Q666.1108,63.6912 667.7205,63.6912 Q668.6673,63.6912 669.3302,63.4387 Q669.7247,63.2808 670.1508,62.839 Q670.4191,62.5707 670.5611,62.4918 Q670.7189,62.4129 670.9241,62.4129 Q671.2555,62.4129 671.508,62.6812 Q671.7763,62.9337 671.7763,63.2808 Q671.7763,63.628 671.4291,64.0383 Q670.9241,64.6222 670.1192,64.9537 Q669.0303,65.4113 667.7205,65.4113 Q666.1897,65.4113 664.9745,64.7801 Q663.9803,64.2751 663.2859,63.2019 Q662.5916,62.113 662.5916,60.819 L662.5916,59.6512 Q662.5916,58.3097 663.207,57.1577 Q663.8383,55.9899 664.943,55.3744 Q666.0477,54.7432 667.2944,54.7432 Q668.0361,54.7432 668.6831,54.9168 Q669.3459,55.0746 669.8983,55.4376 Z " fill="#000000"/><text fill="#000000" font-family="sans-serif" font-size="14.14" lengthAdjust="spacing" textLength="79.79" x="681.245" y="65.4587">LoginActivity</text><line style="stroke:#181818;stroke-width:0.505;" x1="652.965" x2="763.055" y1="75.7638" y2="75.7638"/><line style="stroke:#181818;stroke-width:0.505;" x1="652.965" x2="763.055" y1="83.8438" y2="83.8438"/></g><!--MD5=[88972fbe0f72fe9fe011e7ec92afea54]
class MapsActivity--><g id="elem_MapsActivity"><rect codeLine="26" fill="#F1F1F1" height="48.48" id="MapsActivity" rx="2.525" ry="2.525" style="stroke:#181818;stroke-width:0.505;" width="111.1" x="490.86" y="479.7638"/><ellipse cx="506.01" cy="495.9238" fill="#ADD1B2" rx="11.11" ry="11.11" style="stroke:#181818;stroke-width:1.01;"/><path d="M508.8033,491.7576 Q508.9611,491.5366 509.1505,491.4262 Q509.3398,491.3157 509.5608,491.3157 Q509.9395,491.3157 510.1763,491.584 Q510.413,491.8365 510.413,492.4519 L510.413,493.9196 Q510.413,494.5351 510.1763,494.8033 Q509.9395,495.0716 509.5608,495.0716 Q509.2136,495.0716 509.0084,494.8665 Q508.8033,494.6771 508.6928,494.1563 Q508.6455,493.7933 508.4561,493.604 Q508.1247,493.2252 507.5092,493.0043 Q506.8938,492.7833 506.2625,492.7833 Q505.4892,492.7833 504.8422,493.1147 Q504.2109,493.4462 503.7059,494.2037 Q503.2167,494.9612 503.2167,496.0027 L503.2167,497.1074 Q503.2167,498.3541 504.1163,499.1905 Q505.0158,500.0112 506.6255,500.0112 Q507.5723,500.0112 508.2352,499.7587 Q508.6297,499.6008 509.0558,499.159 Q509.3241,498.8907 509.4661,498.8118 Q509.6239,498.7329 509.8291,498.7329 Q510.1605,498.7329 510.413,499.0012 Q510.6813,499.2537 510.6813,499.6008 Q510.6813,499.948 510.3341,500.3583 Q509.8291,500.9422 509.0242,501.2737 Q507.9353,501.7313 506.6255,501.7313 Q505.0947,501.7313 503.8795,501.1001 Q502.8853,500.5951 502.1909,499.5219 Q501.4966,498.433 501.4966,497.139 L501.4966,495.9712 Q501.4966,494.6297 502.112,493.4777 Q502.7433,492.3099 503.848,491.6944 Q504.9527,491.0632 506.1994,491.0632 Q506.9411,491.0632 507.5881,491.2368 Q508.2509,491.3946 508.8033,491.7576 Z " fill="#000000"/><text fill="#000000" font-family="sans-serif" font-size="14.14" lengthAdjust="spacing" textLength="78.78" x="520.15" y="501.7787">MapsActivity</text><line style="stroke:#181818;stroke-width:0.505;" x1="491.87" x2="600.95" y1="512.0838" y2="512.0838"/><line style="stroke:#181818;stroke-width:0.505;" x1="491.87" x2="600.95" y1="520.1638" y2="520.1638"/></g><!--MD5=[2fea5cc2d04d18f75896a3b4d507ec3b]
class MenuActivity--><g id="elem_MenuActivity"><rect codeLine="29" fill="#F1F1F1" height="48.48" id="MenuActivity" rx="2.525" ry="2.525" style="stroke:#181818;stroke-width:0.505;" width="112.11" x="430.765" y="370.6838"/><ellipse cx="445.915" cy="386.8438" fill="#ADD1B2" rx="11.11" ry="11.11" style="stroke:#181818;stroke-width:1.01;"/><path d="M448.7083,382.6776 Q448.8661,382.4566 449.0555,382.3462 Q449.2448,382.2357 449.4658,382.2357 Q449.8445,382.2357 450.0813,382.504 Q450.318,382.7565 450.318,383.3719 L450.318,384.8396 Q450.318,385.4551 450.0813,385.7233 Q449.8445,385.9916 449.4658,385.9916 Q449.1186,385.9916 448.9134,385.7865 Q448.7083,385.5971 448.5978,385.0763 Q448.5505,384.7133 448.3611,384.524 Q448.0297,384.1452 447.4142,383.9243 Q446.7988,383.7033 446.1675,383.7033 Q445.3942,383.7033 444.7472,384.0347 Q444.1159,384.3662 443.6109,385.1237 Q443.1217,385.8812 443.1217,386.9227 L443.1217,388.0274 Q443.1217,389.2741 444.0213,390.1105 Q444.9208,390.9312 446.5305,390.9312 Q447.4773,390.9312 448.1402,390.6787 Q448.5347,390.5208 448.9608,390.079 Q449.2291,389.8107 449.3711,389.7318 Q449.5289,389.6529 449.7341,389.6529 Q450.0655,389.6529 450.318,389.9212 Q450.5863,390.1737 450.5863,390.5208 Q450.5863,390.868 450.2391,391.2783 Q449.7341,391.8622 448.9292,392.1937 Q447.8403,392.6513 446.5305,392.6513 Q444.9997,392.6513 443.7845,392.0201 Q442.7903,391.5151 442.0959,390.4419 Q441.4016,389.353 441.4016,388.059 L441.4016,386.8912 Q441.4016,385.5497 442.017,384.3977 Q442.6483,383.2299 443.753,382.6144 Q444.8577,381.9832 446.1044,381.9832 Q446.8461,381.9832 447.4931,382.1568 Q448.1559,382.3146 448.7083,382.6776 Z " fill="#000000"/><text fill="#000000" font-family="sans-serif" font-size="14.14" lengthAdjust="spacing" textLength="79.79" x="460.055" y="392.6987">MenuActivity</text><line style="stroke:#181818;stroke-width:0.505;" x1="431.775" x2="541.865" y1="403.0038" y2="403.0038"/><line style="stroke:#181818;stroke-width:0.505;" x1="431.775" x2="541.865" y1="411.0838" y2="411.0838"/></g><!--MD5=[aedb4afb7a1c9f98f0a4317a7de75644]
class NotificationsActivity--><g id="elem_NotificationsActivity"><rect codeLine="32" fill="#F1F1F1" height="48.48" id="NotificationsActivity" rx="2.525" ry="2.525" style="stroke:#181818;stroke-width:0.505;" width="153.52" x="22.22" y="479.7638"/><ellipse cx="37.37" cy="495.9238" fill="#ADD1B2" rx="11.11" ry="11.11" style="stroke:#181818;stroke-width:1.01;"/><path d="M40.1633,491.7576 Q40.3211,491.5366 40.5105,491.4262 Q40.6998,491.3157 40.9208,491.3157 Q41.2995,491.3157 41.5363,491.584 Q41.773,491.8365 41.773,492.4519 L41.773,493.9196 Q41.773,494.5351 41.5363,494.8033 Q41.2995,495.0716 40.9208,495.0716 Q40.5736,495.0716 40.3684,494.8665 Q40.1633,494.6771 40.0528,494.1563 Q40.0055,493.7933 39.8161,493.604 Q39.4847,493.2252 38.8692,493.0043 Q38.2538,492.7833 37.6225,492.7833 Q36.8492,492.7833 36.2022,493.1147 Q35.5709,493.4462 35.0659,494.2037 Q34.5767,494.9612 34.5767,496.0027 L34.5767,497.1074 Q34.5767,498.3541 35.4763,499.1905 Q36.3758,500.0112 37.9855,500.0112 Q38.9323,500.0112 39.5952,499.7587 Q39.9897,499.6008 40.4158,499.159 Q40.6841,498.8907 40.8261,498.8118 Q40.9839,498.7329 41.1891,498.7329 Q41.5205,498.7329 41.773,499.0012 Q42.0413,499.2537 42.0413,499.6008 Q42.0413,499.948 41.6941,500.3583 Q41.1891,500.9422 40.3842,501.2737 Q39.2953,501.7313 37.9855,501.7313 Q36.4547,501.7313 35.2395,501.1001 Q34.2453,500.5951 33.5509,499.5219 Q32.8566,498.433 32.8566,497.139 L32.8566,495.9712 Q32.8566,494.6297 33.472,493.4777 Q34.1033,492.3099 35.208,491.6944 Q36.3127,491.0632 37.5594,491.0632 Q38.3011,491.0632 38.9481,491.2368 Q39.6109,491.3946 40.1633,491.7576 Z " fill="#000000"/><text fill="#000000" font-family="sans-serif" font-size="14.14" lengthAdjust="spacing" textLength="121.2" x="51.51" y="501.7787">NotificationsActivity</text><line style="stroke:#181818;stroke-width:0.505;" x1="23.23" x2="174.73" y1="512.0838" y2="512.0838"/><line style="stroke:#181818;stroke-width:0.505;" x1="23.23" x2="174.73" y1="520.1638" y2="520.1638"/></g><!--MD5=[d937cfba10bde3859f46ada3e0301769]
class PlaceDetailsActivity--><g id="elem_PlaceDetailsActivity"><rect codeLine="35" fill="#F1F1F1" height="48.48" id="PlaceDetailsActivity" rx="2.525" ry="2.525" style="stroke:#181818;stroke-width:0.505;" width="155.54" x="578.73" y="807.0038"/><ellipse cx="593.88" cy="823.1638" fill="#ADD1B2" rx="11.11" ry="11.11" style="stroke:#181818;stroke-width:1.01;"/><path d="M596.6733,818.9976 Q596.8311,818.7766 597.0205,818.6662 Q597.2098,818.5557 597.4308,818.5557 Q597.8095,818.5557 598.0463,818.824 Q598.283,819.0765 598.283,819.6919 L598.283,821.1596 Q598.283,821.7751 598.0463,822.0433 Q597.8095,822.3116 597.4308,822.3116 Q597.0836,822.3116 596.8784,822.1065 Q596.6733,821.9171 596.5628,821.3963 Q596.5155,821.0333 596.3261,820.844 Q595.9947,820.4652 595.3792,820.2443 Q594.7638,820.0233 594.1325,820.0233 Q593.3592,820.0233 592.7122,820.3547 Q592.0809,820.6862 591.5759,821.4437 Q591.0867,822.2012 591.0867,823.2427 L591.0867,824.3474 Q591.0867,825.5941 591.9863,826.4305 Q592.8858,827.2512 594.4955,827.2512 Q595.4423,827.2512 596.1052,826.9987 Q596.4997,826.8408 596.9258,826.399 Q597.1941,826.1307 597.3361,826.0518 Q597.4939,825.9729 597.6991,825.9729 Q598.0305,825.9729 598.283,826.2412 Q598.5513,826.4937 598.5513,826.8408 Q598.5513,827.188 598.2041,827.5983 Q597.6991,828.1822 596.8942,828.5137 Q595.8053,828.9713 594.4955,828.9713 Q592.9647,828.9713 591.7495,828.3401 Q590.7553,827.8351 590.0609,826.7619 Q589.3666,825.673 589.3666,824.379 L589.3666,823.2112 Q589.3666,821.8697 589.982,820.7177 Q590.6133,819.5499 591.718,818.9344 Q592.8227,818.3032 594.0694,818.3032 Q594.8111,818.3032 595.4581,818.4768 Q596.1209,818.6346 596.6733,818.9976 Z " fill="#000000"/><text fill="#000000" font-family="sans-serif" font-size="14.14" lengthAdjust="spacing" textLength="123.22" x="608.02" y="829.0187">PlaceDetailsActivity</text><line style="stroke:#181818;stroke-width:0.505;" x1="579.74" x2="733.26" y1="839.3238" y2="839.3238"/><line style="stroke:#181818;stroke-width:0.505;" x1="579.74" x2="733.26" y1="847.4038" y2="847.4038"/></g><!--MD5=[47c6d94c06cf224f18627569fa38f76b]
class PlacesListActivity--><g id="elem_PlacesListActivity"><rect codeLine="38" fill="#F1F1F1" height="48.48" id="PlacesListActivity" rx="2.525" ry="2.525" style="stroke:#181818;stroke-width:0.505;" width="141.4" x="758.51" y="697.9238"/><ellipse cx="773.66" cy="714.0838" fill="#ADD1B2" rx="11.11" ry="11.11" style="stroke:#181818;stroke-width:1.01;"/><path d="M776.4533,709.9176 Q776.6111,709.6966 776.8005,709.5862 Q776.9898,709.4757 777.2108,709.4757 Q777.5895,709.4757 777.8263,709.744 Q778.063,709.9965 778.063,710.6119 L778.063,712.0796 Q778.063,712.6951 777.8263,712.9633 Q777.5895,713.2316 777.2108,713.2316 Q776.8636,713.2316 776.6584,713.0265 Q776.4533,712.8371 776.3428,712.3163 Q776.2955,711.9533 776.1061,711.764 Q775.7747,711.3852 775.1592,711.1643 Q774.5438,710.9433 773.9125,710.9433 Q773.1392,710.9433 772.4922,711.2747 Q771.8609,711.6062 771.3559,712.3637 Q770.8667,713.1212 770.8667,714.1627 L770.8667,715.2674 Q770.8667,716.5141 771.7663,717.3505 Q772.6658,718.1712 774.2755,718.1712 Q775.2223,718.1712 775.8852,717.9187 Q776.2797,717.7608 776.7058,717.319 Q776.9741,717.0507 777.1161,716.9718 Q777.2739,716.8929 777.4791,716.8929 Q777.8105,716.8929 778.063,717.1612 Q778.3313,717.4137 778.3313,717.7608 Q778.3313,718.108 777.9841,718.5183 Q777.4791,719.1022 776.6742,719.4337 Q775.5853,719.8913 774.2755,719.8913 Q772.7447,719.8913 771.5295,719.2601 Q770.5353,718.7551 769.8409,717.6819 Q769.1466,716.593 769.1466,715.299 L769.1466,714.1312 Q769.1466,712.7897 769.762,711.6377 Q770.3933,710.4699 771.498,709.8544 Q772.6027,709.2232 773.8494,709.2232 Q774.5911,709.2232 775.2381,709.3968 Q775.9009,709.5546 776.4533,709.9176 Z " fill="#000000"/><text fill="#000000" font-family="sans-serif" font-size="14.14" lengthAdjust="spacing" textLength="109.08" x="787.8" y="719.9387">PlacesListActivity</text><line style="stroke:#181818;stroke-width:0.505;" x1="759.52" x2="898.9" y1="730.2438" y2="730.2438"/><line style="stroke:#181818;stroke-width:0.505;" x1="759.52" x2="898.9" y1="738.3238" y2="738.3238"/></g><!--MD5=[2b7f6d2bc437ffa78eebd5bc4367ee60]
class PrivacyActivity--><g id="elem_PrivacyActivity"><rect codeLine="41" fill="#F1F1F1" height="48.48" id="PrivacyActivity" rx="2.525" ry="2.525" style="stroke:#181818;stroke-width:0.505;" width="123.22" x="457.53" y="261.6038"/><ellipse cx="472.68" cy="277.7638" fill="#ADD1B2" rx="11.11" ry="11.11" style="stroke:#181818;stroke-width:1.01;"/><path d="M475.4733,273.5976 Q475.6311,273.3766 475.8205,273.2662 Q476.0098,273.1557 476.2308,273.1557 Q476.6095,273.1557 476.8463,273.424 Q477.083,273.6765 477.083,274.2919 L477.083,275.7596 Q477.083,276.3751 476.8463,276.6433 Q476.6095,276.9116 476.2308,276.9116 Q475.8836,276.9116 475.6784,276.7065 Q475.4733,276.5171 475.3628,275.9963 Q475.3155,275.6333 475.1261,275.444 Q474.7947,275.0652 474.1792,274.8443 Q473.5638,274.6233 472.9325,274.6233 Q472.1592,274.6233 471.5122,274.9547 Q470.8809,275.2862 470.3759,276.0437 Q469.8867,276.8012 469.8867,277.8427 L469.8867,278.9474 Q469.8867,280.1941 470.7863,281.0305 Q471.6858,281.8512 473.2955,281.8512 Q474.2423,281.8512 474.9052,281.5987 Q475.2997,281.4408 475.7258,280.999 Q475.9941,280.7307 476.1361,280.6518 Q476.2939,280.5729 476.4991,280.5729 Q476.8305,280.5729 477.083,280.8412 Q477.3513,281.0937 477.3513,281.4408 Q477.3513,281.788 477.0041,282.1983 Q476.4991,282.7822 475.6942,283.1137 Q474.6053,283.5713 473.2955,283.5713 Q471.7647,283.5713 470.5495,282.9401 Q469.5553,282.4351 468.8609,281.3619 Q468.1666,280.273 468.1666,278.979 L468.1666,277.8112 Q468.1666,276.4697 468.782,275.3177 Q469.4133,274.1499 470.518,273.5344 Q471.6227,272.9032 472.8694,272.9032 Q473.6111,272.9032 474.2581,273.0768 Q474.9209,273.2346 475.4733,273.5976 Z " fill="#000000"/><text fill="#000000" font-family="sans-serif" font-size="14.14" lengthAdjust="spacing" textLength="90.9" x="486.82" y="283.6187">PrivacyActivity</text><line style="stroke:#181818;stroke-width:0.505;" x1="458.54" x2="579.74" y1="293.9238" y2="293.9238"/><line style="stroke:#181818;stroke-width:0.505;" x1="458.54" x2="579.74" y1="302.0038" y2="302.0038"/></g><!--MD5=[ea341d751dcedae6c4872d932c48df08]
class RegisterActivity--><g id="elem_RegisterActivity"><rect codeLine="44" fill="#F1F1F1" height="48.48" id="RegisterActivity" rx="2.525" ry="2.525" style="stroke:#181818;stroke-width:0.505;" width="130.29" x="700.435" y="152.5238"/><ellipse cx="715.585" cy="168.6838" fill="#ADD1B2" rx="11.11" ry="11.11" style="stroke:#181818;stroke-width:1.01;"/><path d="M718.3783,164.5176 Q718.5361,164.2966 718.7255,164.1862 Q718.9148,164.0757 719.1358,164.0757 Q719.5145,164.0757 719.7513,164.344 Q719.988,164.5965 719.988,165.2119 L719.988,166.6796 Q719.988,167.2951 719.7513,167.5633 Q719.5145,167.8316 719.1358,167.8316 Q718.7886,167.8316 718.5834,167.6265 Q718.3783,167.4371 718.2678,166.9163 Q718.2205,166.5533 718.0311,166.364 Q717.6997,165.9852 717.0842,165.7643 Q716.4688,165.5433 715.8375,165.5433 Q715.0642,165.5433 714.4172,165.8747 Q713.7859,166.2062 713.2809,166.9637 Q712.7917,167.7212 712.7917,168.7627 L712.7917,169.8674 Q712.7917,171.1141 713.6913,171.9505 Q714.5908,172.7712 716.2005,172.7712 Q717.1473,172.7712 717.8102,172.5187 Q718.2047,172.3608 718.6308,171.919 Q718.8991,171.6507 719.0411,171.5718 Q719.1989,171.4929 719.4041,171.4929 Q719.7355,171.4929 719.988,171.7612 Q720.2563,172.0137 720.2563,172.3608 Q720.2563,172.708 719.9091,173.1183 Q719.4041,173.7022 718.5992,174.0337 Q717.5103,174.4913 716.2005,174.4913 Q714.6697,174.4913 713.4545,173.8601 Q712.4603,173.3551 711.7659,172.2819 Q711.0716,171.193 711.0716,169.899 L711.0716,168.7312 Q711.0716,167.3897 711.687,166.2377 Q712.3183,165.0699 713.423,164.4544 Q714.5277,163.8232 715.7744,163.8232 Q716.5161,163.8232 717.1631,163.9968 Q717.8259,164.1546 718.3783,164.5176 Z " fill="#000000"/><text fill="#000000" font-family="sans-serif" font-size="14.14" lengthAdjust="spacing" textLength="97.97" x="729.725" y="174.5387">RegisterActivity</text><line style="stroke:#181818;stroke-width:0.505;" x1="701.445" x2="829.715" y1="184.8438" y2="184.8438"/><line style="stroke:#181818;stroke-width:0.505;" x1="701.445" x2="829.715" y1="192.9238" y2="192.9238"/></g><!--MD5=[42835c39904ba3010451ede49cdbd9ac]
class SettingsActivity--><g id="elem_SettingsActivity"><rect codeLine="47" fill="#F1F1F1" height="48.48" id="SettingsActivity" rx="2.525" ry="2.525" style="stroke:#181818;stroke-width:0.505;" width="128.27" x="491.365" y="588.8438"/><ellipse cx="506.515" cy="605.0038" fill="#ADD1B2" rx="11.11" ry="11.11" style="stroke:#181818;stroke-width:1.01;"/><path d="M509.3083,600.8376 Q509.4661,600.6166 509.6555,600.5062 Q509.8448,600.3957 510.0658,600.3957 Q510.4445,600.3957 510.6813,600.664 Q510.918,600.9165 510.918,601.5319 L510.918,602.9996 Q510.918,603.6151 510.6813,603.8833 Q510.4445,604.1516 510.0658,604.1516 Q509.7186,604.1516 509.5134,603.9465 Q509.3083,603.7571 509.1978,603.2363 Q509.1505,602.8733 508.9611,602.684 Q508.6297,602.3052 508.0142,602.0843 Q507.3988,601.8633 506.7675,601.8633 Q505.9942,601.8633 505.3472,602.1947 Q504.7159,602.5262 504.2109,603.2837 Q503.7217,604.0412 503.7217,605.0827 L503.7217,606.1874 Q503.7217,607.4341 504.6213,608.2705 Q505.5208,609.0912 507.1305,609.0912 Q508.0773,609.0912 508.7402,608.8387 Q509.1347,608.6808 509.5608,608.239 Q509.8291,607.9707 509.9711,607.8918 Q510.1289,607.8129 510.3341,607.8129 Q510.6655,607.8129 510.918,608.0812 Q511.1863,608.3337 511.1863,608.6808 Q511.1863,609.028 510.8391,609.4383 Q510.3341,610.0222 509.5292,610.3537 Q508.4403,610.8113 507.1305,610.8113 Q505.5997,610.8113 504.3845,610.1801 Q503.3903,609.6751 502.6959,608.6019 Q502.0016,607.513 502.0016,606.219 L502.0016,605.0512 Q502.0016,603.7097 502.617,602.5577 Q503.2483,601.3899 504.353,600.7744 Q505.4577,600.1432 506.7044,600.1432 Q507.4461,600.1432 508.0931,600.3168 Q508.7559,600.4746 509.3083,600.8376 Z " fill="#000000"/><text fill="#000000" font-family="sans-serif" font-size="14.14" lengthAdjust="spacing" textLength="95.95" x="520.655" y="610.8587">SettingsActivity</text><line style="stroke:#181818;stroke-width:0.505;" x1="492.375" x2="618.625" y1="621.1638" y2="621.1638"/><line style="stroke:#181818;stroke-width:0.505;" x1="492.375" x2="618.625" y1="629.2438" y2="629.2438"/></g><!--MD5=[234f2616f218729d7a9df686c9f4689d]
class SplashActivity--><g id="elem_SplashActivity"><rect codeLine="50" fill="#F1F1F1" height="48.48" id="SplashActivity" rx="2.525" ry="2.525" style="stroke:#181818;stroke-width:0.505;" width="120.19" x="459.045" y="43.4438"/><ellipse cx="474.195" cy="59.6038" fill="#ADD1B2" rx="11.11" ry="11.11" style="stroke:#181818;stroke-width:1.01;"/><path d="M476.9883,55.4376 Q477.1461,55.2166 477.3355,55.1062 Q477.5248,54.9957 477.7458,54.9957 Q478.1245,54.9957 478.3613,55.264 Q478.598,55.5165 478.598,56.1319 L478.598,57.5996 Q478.598,58.2151 478.3613,58.4833 Q478.1245,58.7516 477.7458,58.7516 Q477.3986,58.7516 477.1934,58.5465 Q476.9883,58.3571 476.8778,57.8363 Q476.8305,57.4733 476.6411,57.284 Q476.3097,56.9052 475.6942,56.6843 Q475.0788,56.4633 474.4475,56.4633 Q473.6742,56.4633 473.0272,56.7947 Q472.3959,57.1262 471.8909,57.8837 Q471.4017,58.6412 471.4017,59.6827 L471.4017,60.7874 Q471.4017,62.0341 472.3013,62.8705 Q473.2008,63.6912 474.8105,63.6912 Q475.7573,63.6912 476.4202,63.4387 Q476.8147,63.2808 477.2408,62.839 Q477.5091,62.5707 477.6511,62.4918 Q477.8089,62.4129 478.0141,62.4129 Q478.3455,62.4129 478.598,62.6812 Q478.8663,62.9337 478.8663,63.2808 Q478.8663,63.628 478.5191,64.0383 Q478.0141,64.6222 477.2092,64.9537 Q476.1203,65.4113 474.8105,65.4113 Q473.2797,65.4113 472.0645,64.7801 Q471.0703,64.2751 470.3759,63.2019 Q469.6816,62.113 469.6816,60.819 L469.6816,59.6512 Q469.6816,58.3097 470.297,57.1577 Q470.9283,55.9899 472.033,55.3744 Q473.1377,54.7432 474.3844,54.7432 Q475.1261,54.7432 475.7731,54.9168 Q476.4359,55.0746 476.9883,55.4376 Z " fill="#000000"/><text fill="#000000" font-family="sans-serif" font-size="14.14" lengthAdjust="spacing" textLength="87.87" x="488.335" y="65.4587">SplashActivity</text><line style="stroke:#181818;stroke-width:0.505;" x1="460.055" x2="578.225" y1="75.7638" y2="75.7638"/><line style="stroke:#181818;stroke-width:0.505;" x1="460.055" x2="578.225" y1="83.8438" y2="83.8438"/></g><!--MD5=[4622fc7d73011995e62f6f82c4352364]
class UserListActivity--><g id="elem_UserListActivity"><rect codeLine="53" fill="#F1F1F1" height="48.48" id="UserListActivity" rx="2.525" ry="2.525" style="stroke:#181818;stroke-width:0.505;" width="128.27" x="244.925" y="697.9238"/><ellipse cx="260.075" cy="714.0838" fill="#ADD1B2" rx="11.11" ry="11.11" style="stroke:#181818;stroke-width:1.01;"/><path d="M262.8683,709.9176 Q263.0261,709.6966 263.2155,709.5862 Q263.4048,709.4757 263.6258,709.4757 Q264.0045,709.4757 264.2413,709.744 Q264.478,709.9965 264.478,710.6119 L264.478,712.0796 Q264.478,712.6951 264.2413,712.9633 Q264.0045,713.2316 263.6258,713.2316 Q263.2786,713.2316 263.0734,713.0265 Q262.8683,712.8371 262.7578,712.3163 Q262.7105,711.9533 262.5211,711.764 Q262.1897,711.3852 261.5742,711.1643 Q260.9588,710.9433 260.3275,710.9433 Q259.5542,710.9433 258.9072,711.2747 Q258.2759,711.6062 257.7709,712.3637 Q257.2817,713.1212 257.2817,714.1627 L257.2817,715.2674 Q257.2817,716.5141 258.1813,717.3505 Q259.0808,718.1712 260.6905,718.1712 Q261.6373,718.1712 262.3002,717.9187 Q262.6947,717.7608 263.1208,717.319 Q263.3891,717.0507 263.5311,716.9718 Q263.6889,716.8929 263.8941,716.8929 Q264.2255,716.8929 264.478,717.1612 Q264.7463,717.4137 264.7463,717.7608 Q264.7463,718.108 264.3991,718.5183 Q263.8941,719.1022 263.0892,719.4337 Q262.0003,719.8913 260.6905,719.8913 Q259.1597,719.8913 257.9445,719.2601 Q256.9503,718.7551 256.2559,717.6819 Q255.5616,716.593 255.5616,715.299 L255.5616,714.1312 Q255.5616,712.7897 256.177,711.6377 Q256.8083,710.4699 257.913,709.8544 Q259.0177,709.2232 260.2644,709.2232 Q261.0061,709.2232 261.6531,709.3968 Q262.3159,709.5546 262.8683,709.9176 Z " fill="#000000"/><text fill="#000000" font-family="sans-serif" font-size="14.14" lengthAdjust="spacing" textLength="95.95" x="274.215" y="719.9387">UserListActivity</text><line style="stroke:#181818;stroke-width:0.505;" x1="245.935" x2="372.185" y1="730.2438" y2="730.2438"/><line style="stroke:#181818;stroke-width:0.505;" x1="245.935" x2="372.185" y1="738.3238" y2="738.3238"/></g><!--MD5=[00b6192ee74ccabe3d091147941ee9ea]
link AreaIntroActivity to IntroActivity--><g id="link_AreaIntroActivity_IntroActivity"><path codeLine="58" d="M812.141,91.9238 C768.3979,110.2553 707.7979,135.6467 664.782,153.6651 " fill="none" id="AreaIntroActivity-IntroActivity" style="stroke:#181818;stroke-width:1.01;"/></g><!--MD5=[1ee2aa1411cfde5f09cd6c9eacd8a08c]
link AreaIntroActivity to PlacesListActivity--><g id="link_AreaIntroActivity_PlacesListActivity"><path codeLine="59" d="M879.8211,91.9541 C899.0616,130.7886 934.25,211.7906 934.25,284.8338 C934.25,284.8338 934.25,284.8338 934.25,505.0138 C934.25,564.4321 942.0068,584.3695 915.06,637.3238 C902.7784,661.4628 880.8311,682.7031 862.2067,697.7622 " fill="none" id="AreaIntroActivity-PlacesListActivity" style="stroke:#181818;stroke-width:1.01;"/></g><!--MD5=[fb2b5b759972bdfa5cda511a36951776]
link AreasListActivity to PlacesListActivity--><g id="link_AreasListActivity_PlacesListActivity"><path codeLine="60" d="M829.21,637.3238 C829.21,655.1604 829.21,679.6832 829.21,697.6006 " fill="none" id="AreasListActivity-PlacesListActivity" style="stroke:#181818;stroke-width:1.01;"/></g><!--MD5=[e9551164e15939172e28125b8f051481]
link ExploreActivity to AreaIntroActivity--><g id="link_ExploreActivity_AreaIntroActivity"><path codeLine="61" d="M837.0173,479.5315 C842.643,403.9532 860.2372,167.4516 865.8528,92.045 " fill="none" id="ExploreActivity-AreaIntroActivity" style="stroke:#181818;stroke-width:1.01;"/></g><!--MD5=[f00d4cf618d5dbed03f644b59baec9af]
link ExploreActivity to AreasListActivity--><g id="link_ExploreActivity_AreasListActivity"><path codeLine="62" d="M833.957,528.2438 C832.947,546.0804 831.5532,570.6032 830.5432,588.5206 " fill="none" id="ExploreActivity-AreasListActivity" style="stroke:#181818;stroke-width:1.01;"/></g><!--MD5=[b8287ebcf2c6193c2870c71e7dd28f64]
link ExploreActivity to IntroActivity--><g id="link_ExploreActivity_IntroActivity"><path codeLine="63" d="M819.0595,479.38 C777.8111,419.2749 669.1957,261.018 628.1089,201.1654 " fill="none" id="ExploreActivity-IntroActivity" style="stroke:#181818;stroke-width:1.01;"/></g><!--MD5=[b94f732910facba163bb5c0db950233e]
link ExploreActivity to PlaceDetailsActivity--><g id="link_ExploreActivity_PlaceDetailsActivity"><path codeLine="64" d="M802.6066,528.2741 C783.1237,543.5857 759.1867,565.129 743.36,588.8438 C695.5264,660.5336 670.3774,761.7558 660.9541,806.9129 " fill="none" id="ExploreActivity-PlaceDetailsActivity" style="stroke:#181818;stroke-width:1.01;"/></g><!--MD5=[94c9920cf9805383e642e1beeac55d79]
link InfoActivity to IntroActivity--><g id="link_InfoActivity_IntroActivity"><path codeLine="65" d="M682.3055,479.38 C668.3069,419.2749 631.452,261.018 617.5039,201.1654 " fill="none" id="InfoActivity-IntroActivity" style="stroke:#181818;stroke-width:1.01;"/></g><!--MD5=[6a9c638b74c89a2bb064a36d8709845d]
link IntroActivity to MenuActivity--><g id="link_IntroActivity_MenuActivity"><path codeLine="66" d="M615.1809,201.4583 C617.6857,229.3343 618.0998,276.1074 598.93,310.0838 C584.2345,336.1216 557.7826,356.4832 534.2597,370.6232 " fill="none" id="IntroActivity-MenuActivity" style="stroke:#181818;stroke-width:1.01;"/></g><!--MD5=[679daa46116ab4eeb8b27f88cc7df626]
link IntroActivity to PrivacyActivity--><g id="link_IntroActivity_PrivacyActivity"><path codeLine="67" d="M591.9004,201.0038 C576.4171,218.8404 555.1364,243.3632 539.5824,261.2806 " fill="none" id="IntroActivity-PrivacyActivity" style="stroke:#181818;stroke-width:1.01;"/></g><!--MD5=[59bf89562ba624f49e95c9548314fa1e]
link LatestPlacesActivity to PlaceDetailsActivity--><g id="link_LatestPlacesActivity_PlaceDetailsActivity"><path codeLine="68" d="M406.9391,637.4349 C460.7721,679.0166 572.6801,765.4726 626.4222,806.9937 " fill="none" id="LatestPlacesActivity-PlaceDetailsActivity" style="stroke:#181818;stroke-width:1.01;"/></g><!--MD5=[8b70236c66de47c19e4ad16dfc6f4611]
link LoginActivity to RegisterActivity--><g id="link_LoginActivity_RegisterActivity"><path codeLine="69" d="M720.5037,91.9238 C730.0886,109.7604 743.2792,134.2832 752.9146,152.2006 " fill="none" id="LoginActivity-RegisterActivity" style="stroke:#181818;stroke-width:1.01;"/></g><!--MD5=[0b7b1a9d5e58f4ec7b3dc75963790ce4]
link MapsActivity to PlaceDetailsActivity--><g id="link_MapsActivity_PlaceDetailsActivity"><path codeLine="70" d="M582.8508,528.3953 C602.566,543.1716 625.291,564.1291 637.31,588.8438 C672.7913,661.8163 665.6809,761.9578 660.035,806.8321 " fill="none" id="MapsActivity-PlaceDetailsActivity" style="stroke:#181818;stroke-width:1.01;"/></g><!--MD5=[ed1b9c6f3ed29118710fc9d7ae5db607]
link MapsActivity to SettingsActivity--><g id="link_MapsActivity_SettingsActivity"><path codeLine="71" d="M548.3795,528.2438 C549.8945,546.0804 551.9751,570.6032 553.5002,588.5206 " fill="none" id="MapsActivity-SettingsActivity" style="stroke:#181818;stroke-width:1.01;"/></g><!--MD5=[3e23acdc08583a793c045b3a055d46ca]
link MenuActivity to DebugOptionsActivity--><g id="link_MenuActivity_DebugOptionsActivity"><path codeLine="72" d="M453.5102,419.1638 C427.8461,437.061 392.5264,461.6949 366.8118,479.6224 " fill="none" id="MenuActivity-DebugOptionsActivity" style="stroke:#181818;stroke-width:1.01;"/></g><!--MD5=[4da9ba69183ed0e53494cfe2a5bcb7fe]
link MenuActivity to ExploreActivity--><g id="link_MenuActivity_ExploreActivity"><path codeLine="73" d="M543.1881,413.2553 C606.1818,432.6069 707.8484,463.8462 773.0944,483.8947 " fill="none" id="MenuActivity-ExploreActivity" style="stroke:#181818;stroke-width:1.01;"/></g><!--MD5=[9f94b72c19acf060bc211b4f77bf83c7]
link MenuActivity to InfoActivity--><g id="link_MenuActivity_InfoActivity"><path codeLine="74" d="M530.4318,419.1638 C564.0244,437.061 610.2723,461.6949 643.9356,479.6224 " fill="none" id="MenuActivity-InfoActivity" style="stroke:#181818;stroke-width:1.01;"/></g><!--MD5=[3dfcbd9435089391be68079dc29bf3bd]
link MenuActivity to LatestPlacesActivity--><g id="link_MenuActivity_LatestPlacesActivity"><path codeLine="75" d="M479.5076,419.6284 C470.7206,446.6964 454.702,491.9343 435.31,528.2438 C423.7657,549.8578 407.6461,572.5323 395.2332,588.8337 " fill="none" id="MenuActivity-LatestPlacesActivity" style="stroke:#181818;stroke-width:1.01;"/></g><!--MD5=[119ba0284de49822bb09dcc0ab178ff0]
link MenuActivity to MapsActivity--><g id="link_MenuActivity_MapsActivity"><path codeLine="76" d="M499.748,419.1638 C509.6763,437.0004 523.3315,461.5232 533.3002,479.4406 " fill="none" id="MenuActivity-MapsActivity" style="stroke:#181818;stroke-width:1.01;"/></g><!--MD5=[d2ee15241bdc1bd895c1a2b02d48ad8a]
link MenuActivity to NotificationsActivity--><g id="link_MenuActivity_NotificationsActivity"><path codeLine="77" d="M430.4216,411.4979 C363.297,430.0314 250.884,461.0586 175.841,481.7737 " fill="none" id="MenuActivity-NotificationsActivity" style="stroke:#181818;stroke-width:1.01;"/></g><!--MD5=[eda37defe203e87a80e976751565b712]
link MenuActivity to UserListActivity--><g id="link_MenuActivity_UserListActivity"><path codeLine="78" d="M430.5933,396.4994 C370.1347,400.4788 276.6188,417.1842 231.29,479.7638 C181.1839,548.9387 251.6819,651.8981 288.7691,697.7117 " fill="none" id="MenuActivity-UserListActivity" style="stroke:#181818;stroke-width:1.01;"/></g><!--MD5=[7bbaa4efec7d4db8d04dfb9a5d50bc63]
link PlacesListActivity to PlaceDetailsActivity--><g id="link_PlacesListActivity_PlaceDetailsActivity"><path codeLine="79" d="M791.739,746.4038 C762.8631,764.301 723.1297,788.9349 694.2033,806.8624 " fill="none" id="PlacesListActivity-PlaceDetailsActivity" style="stroke:#181818;stroke-width:1.01;"/></g><!--MD5=[f793045aaa3752dd68bfa92accd735c6]
link PrivacyActivity to MenuActivity--><g id="link_PrivacyActivity_MenuActivity"><path codeLine="80" d="M512.1306,310.0838 C506.7473,327.9204 499.344,352.4432 493.9304,370.3606 " fill="none" id="PrivacyActivity-MenuActivity" style="stroke:#181818;stroke-width:1.01;"/></g><!--MD5=[ad46b784c865001c66f0cf36169cc6ec]
link SplashActivity to IntroActivity--><g id="link_SplashActivity_IntroActivity"><path codeLine="81" d="M539.2996,91.9238 C554.7829,109.7604 576.0636,134.2832 591.6176,152.2006 " fill="none" id="SplashActivity-IntroActivity" style="stroke:#181818;stroke-width:1.01;"/></g><!--MD5=[632cfce0c15afd9f2d3bbb51aae99749]
link SplashActivity to MenuActivity--><g id="link_SplashActivity_MenuActivity"><path codeLine="82" d="M506.0605,92.1157 C487.1331,127.5263 452.9749,197.3476 440.36,261.6038 C436.2089,282.7431 434.9666,289.2273 440.36,310.0838 C446.0261,331.9907 458.7824,354.2814 469.4985,370.3606 " fill="none" id="SplashActivity-MenuActivity" style="stroke:#181818;stroke-width:1.01;"/></g><!--MD5=[3d7b7ac308b63d9de196774f86012507]
link SplashActivity to PrivacyActivity--><g id="link_SplashActivity_PrivacyActivity"><path codeLine="83" d="M519.14,92.2369 C519.14,133.8085 519.14,219.7696 519.14,261.321 " fill="none" id="SplashActivity-PrivacyActivity" style="stroke:#181818;stroke-width:1.01;"/></g><!--MD5=[a8ad42800450080f42695e6b708c25f3]
link UserListActivity to PlaceDetailsActivity--><g id="link_UserListActivity_PlaceDetailsActivity"><path codeLine="84" d="M373.599,743.0607 C432.2699,761.1397 518.8976,787.834 580.8207,806.9129 " fill="none" id="UserListActivity-PlaceDetailsActivity" style="stroke:#181818;stroke-width:1.01;"/></g><!--MD5=[5bae760691eaa992c4c46905f799db80]
@startuml
package com.niceplaces.niceplaces.activities {
class AreaIntroActivity {
}

class AreasListActivity {
}

class DebugOptionsActivity {
}

class ExploreActivity {
}

class InfoActivity {
}

class IntroActivity {
}

class LatestPlacesActivity {
}

class LoginActivity {
}

class MapsActivity {
}

class MenuActivity {
}

class NotificationsActivity {
}

class PlaceDetailsActivity {
}

class PlacesListActivity {
}

class PrivacyActivity {
}

class RegisterActivity {
}

class SettingsActivity {
}

class SplashActivity {
}

class UserListActivity {
}

}

AreaIntroActivity - - IntroActivity
AreaIntroActivity - - PlacesListActivity
AreasListActivity - - PlacesListActivity
ExploreActivity - - AreaIntroActivity
ExploreActivity - - AreasListActivity
ExploreActivity - - IntroActivity
ExploreActivity - - PlaceDetailsActivity
InfoActivity - - IntroActivity
IntroActivity - - MenuActivity
IntroActivity - - PrivacyActivity
LatestPlacesActivity - - PlaceDetailsActivity
LoginActivity - - RegisterActivity
MapsActivity - - PlaceDetailsActivity
MapsActivity - - SettingsActivity
MenuActivity - - DebugOptionsActivity
MenuActivity - - ExploreActivity
MenuActivity - - InfoActivity
MenuActivity - - LatestPlacesActivity
MenuActivity - - MapsActivity
MenuActivity - - NotificationsActivity
MenuActivity - - UserListActivity
PlacesListActivity - - PlaceDetailsActivity
PrivacyActivity - - MenuActivity
SplashActivity - - IntroActivity
SplashActivity - - MenuActivity
SplashActivity - - PrivacyActivity
UserListActivity - - PlaceDetailsActivity
@enduml

PlantUML version 1.2022.13(Sat Nov 19 14:22:17 CET 2022)
(GPL source distribution)
Java Runtime: OpenJDK Runtime Environment
JVM: OpenJDK 64-Bit Server VM
Default Encoding: Cp1252
Language: it
Country: IT
--></g></svg>