<?xml version="1.0" encoding="UTF-8" standalone="no"?><svg xmlns="http://www.w3.org/2000/svg" xmlns:xlink="http://www.w3.org/1999/xlink" contentStyleType="text/css" height="278px" preserveAspectRatio="none" style="width:1767px;height:278px;background:#FFFFFF;" version="1.1" viewBox="0 0 1767 278" width="1767px" zoomAndPan="magnify"><defs/><g><!--MD5=[0672d2aa12e0dc219073069b20edd970]
class DebugOptionsActivity--><g id="elem_DebugOptionsActivity"><rect codeLine="1" fill="#F1F1F1" height="48" id="DebugOptionsActivity" rx="2.5" ry="2.5" style="stroke:#181818;stroke-width:0.5;" width="167" x="7" y="223"/><ellipse cx="22" cy="239" fill="#ADD1B2" rx="11" ry="11" style="stroke:#181818;stroke-width:1.0;"/><path d="M24.7656,234.875 Q24.9219,234.6563 25.1094,234.5469 Q25.2969,234.4375 25.5156,234.4375 Q25.8906,234.4375 26.125,234.7031 Q26.3594,234.9531 26.3594,235.5625 L26.3594,237.0156 Q26.3594,237.625 26.125,237.8906 Q25.8906,238.1563 25.5156,238.1563 Q25.1719,238.1563 24.9688,237.9531 Q24.7656,237.7656 24.6563,237.25 Q24.6094,236.8906 24.4219,236.7031 Q24.0938,236.3281 23.4844,236.1094 Q22.875,235.8906 22.25,235.8906 Q21.4844,235.8906 20.8438,236.2188 Q20.2188,236.5469 19.7188,237.2969 Q19.2344,238.0469 19.2344,239.0781 L19.2344,240.1719 Q19.2344,241.4063 20.125,242.2344 Q21.0156,243.0469 22.6094,243.0469 Q23.5469,243.0469 24.2031,242.7969 Q24.5938,242.6406 25.0156,242.2031 Q25.2813,241.9375 25.4219,241.8594 Q25.5781,241.7813 25.7813,241.7813 Q26.1094,241.7813 26.3594,242.0469 Q26.625,242.2969 26.625,242.6406 Q26.625,242.9844 26.2813,243.3906 Q25.7813,243.9688 24.9844,244.2969 Q23.9063,244.75 22.6094,244.75 Q21.0938,244.75 19.8906,244.125 Q18.9063,243.625 18.2188,242.5625 Q17.5313,241.4844 17.5313,240.2031 L17.5313,239.0469 Q17.5313,237.7188 18.1406,236.5781 Q18.7656,235.4219 19.8594,234.8125 Q20.9531,234.1875 22.1875,234.1875 Q22.9219,234.1875 23.5625,234.3594 Q24.2188,234.5156 24.7656,234.875 Z " fill="#000000"/><text fill="#000000" font-family="sans-serif" font-size="14" lengthAdjust="spacing" textLength="135" x="36" y="244.7969">DebugOptionsActivity</text><line style="stroke:#181818;stroke-width:0.5;" x1="8" x2="173" y1="255" y2="255"/><line style="stroke:#181818;stroke-width:0.5;" x1="8" x2="173" y1="263" y2="263"/></g><!--MD5=[3cbc91592253287b97490780963bad64]
class ExploreActivity--><g id="elem_ExploreActivity"><rect codeLine="4" fill="#F1F1F1" height="48" id="ExploreActivity" rx="2.5" ry="2.5" style="stroke:#181818;stroke-width:0.5;" width="123" x="209" y="223"/><ellipse cx="224" cy="239" fill="#ADD1B2" rx="11" ry="11" style="stroke:#181818;stroke-width:1.0;"/><path d="M226.7656,234.875 Q226.9219,234.6563 227.1094,234.5469 Q227.2969,234.4375 227.5156,234.4375 Q227.8906,234.4375 228.125,234.7031 Q228.3594,234.9531 228.3594,235.5625 L228.3594,237.0156 Q228.3594,237.625 228.125,237.8906 Q227.8906,238.1563 227.5156,238.1563 Q227.1719,238.1563 226.9688,237.9531 Q226.7656,237.7656 226.6563,237.25 Q226.6094,236.8906 226.4219,236.7031 Q226.0938,236.3281 225.4844,236.1094 Q224.875,235.8906 224.25,235.8906 Q223.4844,235.8906 222.8438,236.2188 Q222.2188,236.5469 221.7188,237.2969 Q221.2344,238.0469 221.2344,239.0781 L221.2344,240.1719 Q221.2344,241.4063 222.125,242.2344 Q223.0156,243.0469 224.6094,243.0469 Q225.5469,243.0469 226.2031,242.7969 Q226.5938,242.6406 227.0156,242.2031 Q227.2813,241.9375 227.4219,241.8594 Q227.5781,241.7813 227.7813,241.7813 Q228.1094,241.7813 228.3594,242.0469 Q228.625,242.2969 228.625,242.6406 Q228.625,242.9844 228.2813,243.3906 Q227.7813,243.9688 226.9844,244.2969 Q225.9063,244.75 224.6094,244.75 Q223.0938,244.75 221.8906,244.125 Q220.9063,243.625 220.2188,242.5625 Q219.5313,241.4844 219.5313,240.2031 L219.5313,239.0469 Q219.5313,237.7188 220.1406,236.5781 Q220.7656,235.4219 221.8594,234.8125 Q222.9531,234.1875 224.1875,234.1875 Q224.9219,234.1875 225.5625,234.3594 Q226.2188,234.5156 226.7656,234.875 Z " fill="#000000"/><text fill="#000000" font-family="sans-serif" font-size="14" lengthAdjust="spacing" textLength="91" x="238" y="244.7969">ExploreActivity</text><line style="stroke:#181818;stroke-width:0.5;" x1="210" x2="331" y1="255" y2="255"/><line style="stroke:#181818;stroke-width:0.5;" x1="210" x2="331" y1="263" y2="263"/></g><!--MD5=[a7b5609dd1c28154c91e946db86144e4]
class InfoActivity--><g id="elem_InfoActivity"><rect codeLine="7" fill="#F1F1F1" height="48" id="InfoActivity" rx="2.5" ry="2.5" style="stroke:#181818;stroke-width:0.5;" width="99" x="367" y="223"/><ellipse cx="382" cy="239" fill="#ADD1B2" rx="11" ry="11" style="stroke:#181818;stroke-width:1.0;"/><path d="M384.7656,234.875 Q384.9219,234.6563 385.1094,234.5469 Q385.2969,234.4375 385.5156,234.4375 Q385.8906,234.4375 386.125,234.7031 Q386.3594,234.9531 386.3594,235.5625 L386.3594,237.0156 Q386.3594,237.625 386.125,237.8906 Q385.8906,238.1563 385.5156,238.1563 Q385.1719,238.1563 384.9688,237.9531 Q384.7656,237.7656 384.6563,237.25 Q384.6094,236.8906 384.4219,236.7031 Q384.0938,236.3281 383.4844,236.1094 Q382.875,235.8906 382.25,235.8906 Q381.4844,235.8906 380.8438,236.2188 Q380.2188,236.5469 379.7188,237.2969 Q379.2344,238.0469 379.2344,239.0781 L379.2344,240.1719 Q379.2344,241.4063 380.125,242.2344 Q381.0156,243.0469 382.6094,243.0469 Q383.5469,243.0469 384.2031,242.7969 Q384.5938,242.6406 385.0156,242.2031 Q385.2813,241.9375 385.4219,241.8594 Q385.5781,241.7813 385.7813,241.7813 Q386.1094,241.7813 386.3594,242.0469 Q386.625,242.2969 386.625,242.6406 Q386.625,242.9844 386.2813,243.3906 Q385.7813,243.9688 384.9844,244.2969 Q383.9063,244.75 382.6094,244.75 Q381.0938,244.75 379.8906,244.125 Q378.9063,243.625 378.2188,242.5625 Q377.5313,241.4844 377.5313,240.2031 L377.5313,239.0469 Q377.5313,237.7188 378.1406,236.5781 Q378.7656,235.4219 379.8594,234.8125 Q380.9531,234.1875 382.1875,234.1875 Q382.9219,234.1875 383.5625,234.3594 Q384.2188,234.5156 384.7656,234.875 Z " fill="#000000"/><text fill="#000000" font-family="sans-serif" font-size="14" lengthAdjust="spacing" textLength="67" x="396" y="244.7969">InfoActivity</text><line style="stroke:#181818;stroke-width:0.5;" x1="368" x2="465" y1="255" y2="255"/><line style="stroke:#181818;stroke-width:0.5;" x1="368" x2="465" y1="263" y2="263"/></g><!--MD5=[2dcaf8c73b9378152b5bc11ee5a81ba8]
class IntroActivity--><g id="elem_IntroActivity"><rect codeLine="10" fill="#F1F1F1" height="48" id="IntroActivity" rx="2.5" ry="2.5" style="stroke:#181818;stroke-width:0.5;" width="104" x="801.5" y="7"/><ellipse cx="816.5" cy="23" fill="#ADD1B2" rx="11" ry="11" style="stroke:#181818;stroke-width:1.0;"/><path d="M819.2656,18.875 Q819.4219,18.6563 819.6094,18.5469 Q819.7969,18.4375 820.0156,18.4375 Q820.3906,18.4375 820.625,18.7031 Q820.8594,18.9531 820.8594,19.5625 L820.8594,21.0156 Q820.8594,21.625 820.625,21.8906 Q820.3906,22.1563 820.0156,22.1563 Q819.6719,22.1563 819.4688,21.9531 Q819.2656,21.7656 819.1563,21.25 Q819.1094,20.8906 818.9219,20.7031 Q818.5938,20.3281 817.9844,20.1094 Q817.375,19.8906 816.75,19.8906 Q815.9844,19.8906 815.3438,20.2188 Q814.7188,20.5469 814.2188,21.2969 Q813.7344,22.0469 813.7344,23.0781 L813.7344,24.1719 Q813.7344,25.4063 814.625,26.2344 Q815.5156,27.0469 817.1094,27.0469 Q818.0469,27.0469 818.7031,26.7969 Q819.0938,26.6406 819.5156,26.2031 Q819.7813,25.9375 819.9219,25.8594 Q820.0781,25.7813 820.2813,25.7813 Q820.6094,25.7813 820.8594,26.0469 Q821.125,26.2969 821.125,26.6406 Q821.125,26.9844 820.7813,27.3906 Q820.2813,27.9688 819.4844,28.2969 Q818.4063,28.75 817.1094,28.75 Q815.5938,28.75 814.3906,28.125 Q813.4063,27.625 812.7188,26.5625 Q812.0313,25.4844 812.0313,24.2031 L812.0313,23.0469 Q812.0313,21.7188 812.6406,20.5781 Q813.2656,19.4219 814.3594,18.8125 Q815.4531,18.1875 816.6875,18.1875 Q817.4219,18.1875 818.0625,18.3594 Q818.7188,18.5156 819.2656,18.875 Z " fill="#000000"/><text fill="#000000" font-family="sans-serif" font-size="14" lengthAdjust="spacing" textLength="72" x="830.5" y="28.7969">IntroActivity</text><line style="stroke:#181818;stroke-width:0.5;" x1="802.5" x2="904.5" y1="39" y2="39"/><line style="stroke:#181818;stroke-width:0.5;" x1="802.5" x2="904.5" y1="47" y2="47"/></g><!--MD5=[df0078689b9c5a823c76e2c8dd3b2816]
class LatestPlacesActivity--><g id="elem_LatestPlacesActivity"><rect codeLine="13" fill="#F1F1F1" height="48" id="LatestPlacesActivity" rx="2.5" ry="2.5" style="stroke:#181818;stroke-width:0.5;" width="157" x="501" y="223"/><ellipse cx="516" cy="239" fill="#ADD1B2" rx="11" ry="11" style="stroke:#181818;stroke-width:1.0;"/><path d="M518.7656,234.875 Q518.9219,234.6563 519.1094,234.5469 Q519.2969,234.4375 519.5156,234.4375 Q519.8906,234.4375 520.125,234.7031 Q520.3594,234.9531 520.3594,235.5625 L520.3594,237.0156 Q520.3594,237.625 520.125,237.8906 Q519.8906,238.1563 519.5156,238.1563 Q519.1719,238.1563 518.9688,237.9531 Q518.7656,237.7656 518.6563,237.25 Q518.6094,236.8906 518.4219,236.7031 Q518.0938,236.3281 517.4844,236.1094 Q516.875,235.8906 516.25,235.8906 Q515.4844,235.8906 514.8438,236.2188 Q514.2188,236.5469 513.7188,237.2969 Q513.2344,238.0469 513.2344,239.0781 L513.2344,240.1719 Q513.2344,241.4063 514.125,242.2344 Q515.0156,243.0469 516.6094,243.0469 Q517.5469,243.0469 518.2031,242.7969 Q518.5938,242.6406 519.0156,242.2031 Q519.2813,241.9375 519.4219,241.8594 Q519.5781,241.7813 519.7813,241.7813 Q520.1094,241.7813 520.3594,242.0469 Q520.625,242.2969 520.625,242.6406 Q520.625,242.9844 520.2813,243.3906 Q519.7813,243.9688 518.9844,244.2969 Q517.9063,244.75 516.6094,244.75 Q515.0938,244.75 513.8906,244.125 Q512.9063,243.625 512.2188,242.5625 Q511.5313,241.4844 511.5313,240.2031 L511.5313,239.0469 Q511.5313,237.7188 512.1406,236.5781 Q512.7656,235.4219 513.8594,234.8125 Q514.9531,234.1875 516.1875,234.1875 Q516.9219,234.1875 517.5625,234.3594 Q518.2188,234.5156 518.7656,234.875 Z " fill="#000000"/><text fill="#000000" font-family="sans-serif" font-size="14" lengthAdjust="spacing" textLength="125" x="530" y="244.7969">LatestPlacesActivity</text><line style="stroke:#181818;stroke-width:0.5;" x1="502" x2="657" y1="255" y2="255"/><line style="stroke:#181818;stroke-width:0.5;" x1="502" x2="657" y1="263" y2="263"/></g><!--MD5=[88972fbe0f72fe9fe011e7ec92afea54]
class MapsActivity--><g id="elem_MapsActivity"><rect codeLine="16" fill="#F1F1F1" height="48" id="MapsActivity" rx="2.5" ry="2.5" style="stroke:#181818;stroke-width:0.5;" width="110" x="693.5" y="223"/><ellipse cx="708.5" cy="239" fill="#ADD1B2" rx="11" ry="11" style="stroke:#181818;stroke-width:1.0;"/><path d="M711.2656,234.875 Q711.4219,234.6563 711.6094,234.5469 Q711.7969,234.4375 712.0156,234.4375 Q712.3906,234.4375 712.625,234.7031 Q712.8594,234.9531 712.8594,235.5625 L712.8594,237.0156 Q712.8594,237.625 712.625,237.8906 Q712.3906,238.1563 712.0156,238.1563 Q711.6719,238.1563 711.4688,237.9531 Q711.2656,237.7656 711.1563,237.25 Q711.1094,236.8906 710.9219,236.7031 Q710.5938,236.3281 709.9844,236.1094 Q709.375,235.8906 708.75,235.8906 Q707.9844,235.8906 707.3438,236.2188 Q706.7188,236.5469 706.2188,237.2969 Q705.7344,238.0469 705.7344,239.0781 L705.7344,240.1719 Q705.7344,241.4063 706.625,242.2344 Q707.5156,243.0469 709.1094,243.0469 Q710.0469,243.0469 710.7031,242.7969 Q711.0938,242.6406 711.5156,242.2031 Q711.7813,241.9375 711.9219,241.8594 Q712.0781,241.7813 712.2813,241.7813 Q712.6094,241.7813 712.8594,242.0469 Q713.125,242.2969 713.125,242.6406 Q713.125,242.9844 712.7813,243.3906 Q712.2813,243.9688 711.4844,244.2969 Q710.4063,244.75 709.1094,244.75 Q707.5938,244.75 706.3906,244.125 Q705.4063,243.625 704.7188,242.5625 Q704.0313,241.4844 704.0313,240.2031 L704.0313,239.0469 Q704.0313,237.7188 704.6406,236.5781 Q705.2656,235.4219 706.3594,234.8125 Q707.4531,234.1875 708.6875,234.1875 Q709.4219,234.1875 710.0625,234.3594 Q710.7188,234.5156 711.2656,234.875 Z " fill="#000000"/><text fill="#000000" font-family="sans-serif" font-size="14" lengthAdjust="spacing" textLength="78" x="722.5" y="244.7969">MapsActivity</text><line style="stroke:#181818;stroke-width:0.5;" x1="694.5" x2="802.5" y1="255" y2="255"/><line style="stroke:#181818;stroke-width:0.5;" x1="694.5" x2="802.5" y1="263" y2="263"/></g><!--MD5=[2fea5cc2d04d18f75896a3b4d507ec3b]
class MenuActivity--><g id="elem_MenuActivity"><rect codeLine="19" fill="#F1F1F1" height="48" id="MenuActivity" rx="2.5" ry="2.5" style="stroke:#181818;stroke-width:0.5;" width="111" x="946" y="115"/><ellipse cx="961" cy="131" fill="#ADD1B2" rx="11" ry="11" style="stroke:#181818;stroke-width:1.0;"/><path d="M963.7656,126.875 Q963.9219,126.6563 964.1094,126.5469 Q964.2969,126.4375 964.5156,126.4375 Q964.8906,126.4375 965.125,126.7031 Q965.3594,126.9531 965.3594,127.5625 L965.3594,129.0156 Q965.3594,129.625 965.125,129.8906 Q964.8906,130.1563 964.5156,130.1563 Q964.1719,130.1563 963.9688,129.9531 Q963.7656,129.7656 963.6563,129.25 Q963.6094,128.8906 963.4219,128.7031 Q963.0938,128.3281 962.4844,128.1094 Q961.875,127.8906 961.25,127.8906 Q960.4844,127.8906 959.8438,128.2188 Q959.2188,128.5469 958.7188,129.2969 Q958.2344,130.0469 958.2344,131.0781 L958.2344,132.1719 Q958.2344,133.4063 959.125,134.2344 Q960.0156,135.0469 961.6094,135.0469 Q962.5469,135.0469 963.2031,134.7969 Q963.5938,134.6406 964.0156,134.2031 Q964.2813,133.9375 964.4219,133.8594 Q964.5781,133.7813 964.7813,133.7813 Q965.1094,133.7813 965.3594,134.0469 Q965.625,134.2969 965.625,134.6406 Q965.625,134.9844 965.2813,135.3906 Q964.7813,135.9688 963.9844,136.2969 Q962.9063,136.75 961.6094,136.75 Q960.0938,136.75 958.8906,136.125 Q957.9063,135.625 957.2188,134.5625 Q956.5313,133.4844 956.5313,132.2031 L956.5313,131.0469 Q956.5313,129.7188 957.1406,128.5781 Q957.7656,127.4219 958.8594,126.8125 Q959.9531,126.1875 961.1875,126.1875 Q961.9219,126.1875 962.5625,126.3594 Q963.2188,126.5156 963.7656,126.875 Z " fill="#000000"/><text fill="#000000" font-family="sans-serif" font-size="14" lengthAdjust="spacing" textLength="79" x="975" y="136.7969">MenuActivity</text><line style="stroke:#181818;stroke-width:0.5;" x1="947" x2="1056" y1="147" y2="147"/><line style="stroke:#181818;stroke-width:0.5;" x1="947" x2="1056" y1="155" y2="155"/></g><!--MD5=[aedb4afb7a1c9f98f0a4317a7de75644]
class NotificationsActivity--><g id="elem_NotificationsActivity"><rect codeLine="22" fill="#F1F1F1" height="48" id="NotificationsActivity" rx="2.5" ry="2.5" style="stroke:#181818;stroke-width:0.5;" width="152" x="838.5" y="223"/><ellipse cx="853.5" cy="239" fill="#ADD1B2" rx="11" ry="11" style="stroke:#181818;stroke-width:1.0;"/><path d="M856.2656,234.875 Q856.4219,234.6563 856.6094,234.5469 Q856.7969,234.4375 857.0156,234.4375 Q857.3906,234.4375 857.625,234.7031 Q857.8594,234.9531 857.8594,235.5625 L857.8594,237.0156 Q857.8594,237.625 857.625,237.8906 Q857.3906,238.1563 857.0156,238.1563 Q856.6719,238.1563 856.4688,237.9531 Q856.2656,237.7656 856.1563,237.25 Q856.1094,236.8906 855.9219,236.7031 Q855.5938,236.3281 854.9844,236.1094 Q854.375,235.8906 853.75,235.8906 Q852.9844,235.8906 852.3438,236.2188 Q851.7188,236.5469 851.2188,237.2969 Q850.7344,238.0469 850.7344,239.0781 L850.7344,240.1719 Q850.7344,241.4063 851.625,242.2344 Q852.5156,243.0469 854.1094,243.0469 Q855.0469,243.0469 855.7031,242.7969 Q856.0938,242.6406 856.5156,242.2031 Q856.7813,241.9375 856.9219,241.8594 Q857.0781,241.7813 857.2813,241.7813 Q857.6094,241.7813 857.8594,242.0469 Q858.125,242.2969 858.125,242.6406 Q858.125,242.9844 857.7813,243.3906 Q857.2813,243.9688 856.4844,244.2969 Q855.4063,244.75 854.1094,244.75 Q852.5938,244.75 851.3906,244.125 Q850.4063,243.625 849.7188,242.5625 Q849.0313,241.4844 849.0313,240.2031 L849.0313,239.0469 Q849.0313,237.7188 849.6406,236.5781 Q850.2656,235.4219 851.3594,234.8125 Q852.4531,234.1875 853.6875,234.1875 Q854.4219,234.1875 855.0625,234.3594 Q855.7188,234.5156 856.2656,234.875 Z " fill="#000000"/><text fill="#000000" font-family="sans-serif" font-size="14" lengthAdjust="spacing" textLength="120" x="867.5" y="244.7969">NotificationsActivity</text><line style="stroke:#181818;stroke-width:0.5;" x1="839.5" x2="989.5" y1="255" y2="255"/><line style="stroke:#181818;stroke-width:0.5;" x1="839.5" x2="989.5" y1="263" y2="263"/></g><!--MD5=[2b7f6d2bc437ffa78eebd5bc4367ee60]
class PrivacyActivity--><g id="elem_PrivacyActivity"><rect codeLine="25" fill="#F1F1F1" height="48" id="PrivacyActivity" rx="2.5" ry="2.5" style="stroke:#181818;stroke-width:0.5;" width="122" x="940.5" y="7"/><ellipse cx="955.5" cy="23" fill="#ADD1B2" rx="11" ry="11" style="stroke:#181818;stroke-width:1.0;"/><path d="M958.2656,18.875 Q958.4219,18.6563 958.6094,18.5469 Q958.7969,18.4375 959.0156,18.4375 Q959.3906,18.4375 959.625,18.7031 Q959.8594,18.9531 959.8594,19.5625 L959.8594,21.0156 Q959.8594,21.625 959.625,21.8906 Q959.3906,22.1563 959.0156,22.1563 Q958.6719,22.1563 958.4688,21.9531 Q958.2656,21.7656 958.1563,21.25 Q958.1094,20.8906 957.9219,20.7031 Q957.5938,20.3281 956.9844,20.1094 Q956.375,19.8906 955.75,19.8906 Q954.9844,19.8906 954.3438,20.2188 Q953.7188,20.5469 953.2188,21.2969 Q952.7344,22.0469 952.7344,23.0781 L952.7344,24.1719 Q952.7344,25.4063 953.625,26.2344 Q954.5156,27.0469 956.1094,27.0469 Q957.0469,27.0469 957.7031,26.7969 Q958.0938,26.6406 958.5156,26.2031 Q958.7813,25.9375 958.9219,25.8594 Q959.0781,25.7813 959.2813,25.7813 Q959.6094,25.7813 959.8594,26.0469 Q960.125,26.2969 960.125,26.6406 Q960.125,26.9844 959.7813,27.3906 Q959.2813,27.9688 958.4844,28.2969 Q957.4063,28.75 956.1094,28.75 Q954.5938,28.75 953.3906,28.125 Q952.4063,27.625 951.7188,26.5625 Q951.0313,25.4844 951.0313,24.2031 L951.0313,23.0469 Q951.0313,21.7188 951.6406,20.5781 Q952.2656,19.4219 953.3594,18.8125 Q954.4531,18.1875 955.6875,18.1875 Q956.4219,18.1875 957.0625,18.3594 Q957.7188,18.5156 958.2656,18.875 Z " fill="#000000"/><text fill="#000000" font-family="sans-serif" font-size="14" lengthAdjust="spacing" textLength="90" x="969.5" y="28.7969">PrivacyActivity</text><line style="stroke:#181818;stroke-width:0.5;" x1="941.5" x2="1061.5" y1="39" y2="39"/><line style="stroke:#181818;stroke-width:0.5;" x1="941.5" x2="1061.5" y1="47" y2="47"/></g><!--MD5=[234f2616f218729d7a9df686c9f4689d]
class SplashActivity--><g id="elem_SplashActivity"><rect codeLine="28" fill="#F1F1F1" height="48" id="SplashActivity" rx="2.5" ry="2.5" style="stroke:#181818;stroke-width:0.5;" width="119" x="1098" y="7"/><ellipse cx="1113" cy="23" fill="#ADD1B2" rx="11" ry="11" style="stroke:#181818;stroke-width:1.0;"/><path d="M1115.7656,18.875 Q1115.9219,18.6563 1116.1094,18.5469 Q1116.2969,18.4375 1116.5156,18.4375 Q1116.8906,18.4375 1117.125,18.7031 Q1117.3594,18.9531 1117.3594,19.5625 L1117.3594,21.0156 Q1117.3594,21.625 1117.125,21.8906 Q1116.8906,22.1563 1116.5156,22.1563 Q1116.1719,22.1563 1115.9688,21.9531 Q1115.7656,21.7656 1115.6563,21.25 Q1115.6094,20.8906 1115.4219,20.7031 Q1115.0938,20.3281 1114.4844,20.1094 Q1113.875,19.8906 1113.25,19.8906 Q1112.4844,19.8906 1111.8438,20.2188 Q1111.2188,20.5469 1110.7188,21.2969 Q1110.2344,22.0469 1110.2344,23.0781 L1110.2344,24.1719 Q1110.2344,25.4063 1111.125,26.2344 Q1112.0156,27.0469 1113.6094,27.0469 Q1114.5469,27.0469 1115.2031,26.7969 Q1115.5938,26.6406 1116.0156,26.2031 Q1116.2813,25.9375 1116.4219,25.8594 Q1116.5781,25.7813 1116.7813,25.7813 Q1117.1094,25.7813 1117.3594,26.0469 Q1117.625,26.2969 1117.625,26.6406 Q1117.625,26.9844 1117.2813,27.3906 Q1116.7813,27.9688 1115.9844,28.2969 Q1114.9063,28.75 1113.6094,28.75 Q1112.0938,28.75 1110.8906,28.125 Q1109.9063,27.625 1109.2188,26.5625 Q1108.5313,25.4844 1108.5313,24.2031 L1108.5313,23.0469 Q1108.5313,21.7188 1109.1406,20.5781 Q1109.7656,19.4219 1110.8594,18.8125 Q1111.9531,18.1875 1113.1875,18.1875 Q1113.9219,18.1875 1114.5625,18.3594 Q1115.2188,18.5156 1115.7656,18.875 Z " fill="#000000"/><text fill="#000000" font-family="sans-serif" font-size="14" lengthAdjust="spacing" textLength="87" x="1127" y="28.7969">SplashActivity</text><line style="stroke:#181818;stroke-width:0.5;" x1="1099" x2="1216" y1="39" y2="39"/><line style="stroke:#181818;stroke-width:0.5;" x1="1099" x2="1216" y1="47" y2="47"/></g><!--MD5=[4622fc7d73011995e62f6f82c4352364]
class UserListActivity--><g id="elem_UserListActivity"><rect codeLine="31" fill="#F1F1F1" height="48" id="UserListActivity" rx="2.5" ry="2.5" style="stroke:#181818;stroke-width:0.5;" width="127" x="1026" y="223"/><ellipse cx="1041" cy="239" fill="#ADD1B2" rx="11" ry="11" style="stroke:#181818;stroke-width:1.0;"/><path d="M1043.7656,234.875 Q1043.9219,234.6563 1044.1094,234.5469 Q1044.2969,234.4375 1044.5156,234.4375 Q1044.8906,234.4375 1045.125,234.7031 Q1045.3594,234.9531 1045.3594,235.5625 L1045.3594,237.0156 Q1045.3594,237.625 1045.125,237.8906 Q1044.8906,238.1563 1044.5156,238.1563 Q1044.1719,238.1563 1043.9688,237.9531 Q1043.7656,237.7656 1043.6563,237.25 Q1043.6094,236.8906 1043.4219,236.7031 Q1043.0938,236.3281 1042.4844,236.1094 Q1041.875,235.8906 1041.25,235.8906 Q1040.4844,235.8906 1039.8438,236.2188 Q1039.2188,236.5469 1038.7188,237.2969 Q1038.2344,238.0469 1038.2344,239.0781 L1038.2344,240.1719 Q1038.2344,241.4063 1039.125,242.2344 Q1040.0156,243.0469 1041.6094,243.0469 Q1042.5469,243.0469 1043.2031,242.7969 Q1043.5938,242.6406 1044.0156,242.2031 Q1044.2813,241.9375 1044.4219,241.8594 Q1044.5781,241.7813 1044.7813,241.7813 Q1045.1094,241.7813 1045.3594,242.0469 Q1045.625,242.2969 1045.625,242.6406 Q1045.625,242.9844 1045.2813,243.3906 Q1044.7813,243.9688 1043.9844,244.2969 Q1042.9063,244.75 1041.6094,244.75 Q1040.0938,244.75 1038.8906,244.125 Q1037.9063,243.625 1037.2188,242.5625 Q1036.5313,241.4844 1036.5313,240.2031 L1036.5313,239.0469 Q1036.5313,237.7188 1037.1406,236.5781 Q1037.7656,235.4219 1038.8594,234.8125 Q1039.9531,234.1875 1041.1875,234.1875 Q1041.9219,234.1875 1042.5625,234.3594 Q1043.2188,234.5156 1043.7656,234.875 Z " fill="#000000"/><text fill="#000000" font-family="sans-serif" font-size="14" lengthAdjust="spacing" textLength="95" x="1055" y="244.7969">UserListActivity</text><line style="stroke:#181818;stroke-width:0.5;" x1="1027" x2="1152" y1="255" y2="255"/><line style="stroke:#181818;stroke-width:0.5;" x1="1027" x2="1152" y1="263" y2="263"/></g><!--MD5=[7c7034635aa9c92ffadc20fdc883fafd]
class Const--><g id="elem_Const"><rect codeLine="34" fill="#F1F1F1" height="48" id="Const" rx="2.5" ry="2.5" style="stroke:#181818;stroke-width:0.5;" width="69" x="1188" y="223"/><ellipse cx="1203" cy="239" fill="#ADD1B2" rx="11" ry="11" style="stroke:#181818;stroke-width:1.0;"/><path d="M1205.7656,234.875 Q1205.9219,234.6563 1206.1094,234.5469 Q1206.2969,234.4375 1206.5156,234.4375 Q1206.8906,234.4375 1207.125,234.7031 Q1207.3594,234.9531 1207.3594,235.5625 L1207.3594,237.0156 Q1207.3594,237.625 1207.125,237.8906 Q1206.8906,238.1563 1206.5156,238.1563 Q1206.1719,238.1563 1205.9688,237.9531 Q1205.7656,237.7656 1205.6563,237.25 Q1205.6094,236.8906 1205.4219,236.7031 Q1205.0938,236.3281 1204.4844,236.1094 Q1203.875,235.8906 1203.25,235.8906 Q1202.4844,235.8906 1201.8438,236.2188 Q1201.2188,236.5469 1200.7188,237.2969 Q1200.2344,238.0469 1200.2344,239.0781 L1200.2344,240.1719 Q1200.2344,241.4063 1201.125,242.2344 Q1202.0156,243.0469 1203.6094,243.0469 Q1204.5469,243.0469 1205.2031,242.7969 Q1205.5938,242.6406 1206.0156,242.2031 Q1206.2813,241.9375 1206.4219,241.8594 Q1206.5781,241.7813 1206.7813,241.7813 Q1207.1094,241.7813 1207.3594,242.0469 Q1207.625,242.2969 1207.625,242.6406 Q1207.625,242.9844 1207.2813,243.3906 Q1206.7813,243.9688 1205.9844,244.2969 Q1204.9063,244.75 1203.6094,244.75 Q1202.0938,244.75 1200.8906,244.125 Q1199.9063,243.625 1199.2188,242.5625 Q1198.5313,241.4844 1198.5313,240.2031 L1198.5313,239.0469 Q1198.5313,237.7188 1199.1406,236.5781 Q1199.7656,235.4219 1200.8594,234.8125 Q1201.9531,234.1875 1203.1875,234.1875 Q1203.9219,234.1875 1204.5625,234.3594 Q1205.2188,234.5156 1205.7656,234.875 Z " fill="#000000"/><text fill="#000000" font-family="sans-serif" font-size="14" lengthAdjust="spacing" textLength="37" x="1217" y="244.7969">Const</text><line style="stroke:#181818;stroke-width:0.5;" x1="1189" x2="1256" y1="255" y2="255"/><line style="stroke:#181818;stroke-width:0.5;" x1="1189" x2="1256" y1="263" y2="263"/></g><!--MD5=[986945877420eb88e09633417d37ad64]
class RateDialog--><g id="elem_RateDialog"><rect codeLine="37" fill="#F1F1F1" height="48" id="RateDialog" rx="2.5" ry="2.5" style="stroke:#181818;stroke-width:0.5;" width="102" x="1292.5" y="223"/><ellipse cx="1307.5" cy="239" fill="#ADD1B2" rx="11" ry="11" style="stroke:#181818;stroke-width:1.0;"/><path d="M1310.2656,234.875 Q1310.4219,234.6563 1310.6094,234.5469 Q1310.7969,234.4375 1311.0156,234.4375 Q1311.3906,234.4375 1311.625,234.7031 Q1311.8594,234.9531 1311.8594,235.5625 L1311.8594,237.0156 Q1311.8594,237.625 1311.625,237.8906 Q1311.3906,238.1563 1311.0156,238.1563 Q1310.6719,238.1563 1310.4688,237.9531 Q1310.2656,237.7656 1310.1563,237.25 Q1310.1094,236.8906 1309.9219,236.7031 Q1309.5938,236.3281 1308.9844,236.1094 Q1308.375,235.8906 1307.75,235.8906 Q1306.9844,235.8906 1306.3438,236.2188 Q1305.7188,236.5469 1305.2188,237.2969 Q1304.7344,238.0469 1304.7344,239.0781 L1304.7344,240.1719 Q1304.7344,241.4063 1305.625,242.2344 Q1306.5156,243.0469 1308.1094,243.0469 Q1309.0469,243.0469 1309.7031,242.7969 Q1310.0938,242.6406 1310.5156,242.2031 Q1310.7813,241.9375 1310.9219,241.8594 Q1311.0781,241.7813 1311.2813,241.7813 Q1311.6094,241.7813 1311.8594,242.0469 Q1312.125,242.2969 1312.125,242.6406 Q1312.125,242.9844 1311.7813,243.3906 Q1311.2813,243.9688 1310.4844,244.2969 Q1309.4063,244.75 1308.1094,244.75 Q1306.5938,244.75 1305.3906,244.125 Q1304.4063,243.625 1303.7188,242.5625 Q1303.0313,241.4844 1303.0313,240.2031 L1303.0313,239.0469 Q1303.0313,237.7188 1303.6406,236.5781 Q1304.2656,235.4219 1305.3594,234.8125 Q1306.4531,234.1875 1307.6875,234.1875 Q1308.4219,234.1875 1309.0625,234.3594 Q1309.7188,234.5156 1310.2656,234.875 Z " fill="#000000"/><text fill="#000000" font-family="sans-serif" font-size="14" lengthAdjust="spacing" textLength="70" x="1321.5" y="244.7969">RateDialog</text><line style="stroke:#181818;stroke-width:0.5;" x1="1293.5" x2="1393.5" y1="255" y2="255"/><line style="stroke:#181818;stroke-width:0.5;" x1="1293.5" x2="1393.5" y1="263" y2="263"/></g><!--MD5=[76b5e19c9337179d2d7ae334371d68c8]
class Notification--><g id="elem_Notification"><rect codeLine="40" fill="#F1F1F1" height="48" id="Notification" rx="2.5" ry="2.5" style="stroke:#181818;stroke-width:0.5;" width="101" x="1430" y="223"/><ellipse cx="1445" cy="239" fill="#ADD1B2" rx="11" ry="11" style="stroke:#181818;stroke-width:1.0;"/><path d="M1447.7656,234.875 Q1447.9219,234.6563 1448.1094,234.5469 Q1448.2969,234.4375 1448.5156,234.4375 Q1448.8906,234.4375 1449.125,234.7031 Q1449.3594,234.9531 1449.3594,235.5625 L1449.3594,237.0156 Q1449.3594,237.625 1449.125,237.8906 Q1448.8906,238.1563 1448.5156,238.1563 Q1448.1719,238.1563 1447.9688,237.9531 Q1447.7656,237.7656 1447.6563,237.25 Q1447.6094,236.8906 1447.4219,236.7031 Q1447.0938,236.3281 1446.4844,236.1094 Q1445.875,235.8906 1445.25,235.8906 Q1444.4844,235.8906 1443.8438,236.2188 Q1443.2188,236.5469 1442.7188,237.2969 Q1442.2344,238.0469 1442.2344,239.0781 L1442.2344,240.1719 Q1442.2344,241.4063 1443.125,242.2344 Q1444.0156,243.0469 1445.6094,243.0469 Q1446.5469,243.0469 1447.2031,242.7969 Q1447.5938,242.6406 1448.0156,242.2031 Q1448.2813,241.9375 1448.4219,241.8594 Q1448.5781,241.7813 1448.7813,241.7813 Q1449.1094,241.7813 1449.3594,242.0469 Q1449.625,242.2969 1449.625,242.6406 Q1449.625,242.9844 1449.2813,243.3906 Q1448.7813,243.9688 1447.9844,244.2969 Q1446.9063,244.75 1445.6094,244.75 Q1444.0938,244.75 1442.8906,244.125 Q1441.9063,243.625 1441.2188,242.5625 Q1440.5313,241.4844 1440.5313,240.2031 L1440.5313,239.0469 Q1440.5313,237.7188 1441.1406,236.5781 Q1441.7656,235.4219 1442.8594,234.8125 Q1443.9531,234.1875 1445.1875,234.1875 Q1445.9219,234.1875 1446.5625,234.3594 Q1447.2188,234.5156 1447.7656,234.875 Z " fill="#000000"/><text fill="#000000" font-family="sans-serif" font-size="14" lengthAdjust="spacing" textLength="69" x="1459" y="244.7969">Notification</text><line style="stroke:#181818;stroke-width:0.5;" x1="1431" x2="1530" y1="255" y2="255"/><line style="stroke:#181818;stroke-width:0.5;" x1="1431" x2="1530" y1="263" y2="263"/></g><!--MD5=[8515a37c80da559ff7ce07f8a9e75d30]
class Place--><g id="elem_Place"><rect codeLine="43" fill="#F1F1F1" height="48" id="Place" rx="2.5" ry="2.5" style="stroke:#181818;stroke-width:0.5;" width="67" x="1566" y="223"/><ellipse cx="1581" cy="239" fill="#ADD1B2" rx="11" ry="11" style="stroke:#181818;stroke-width:1.0;"/><path d="M1583.7656,234.875 Q1583.9219,234.6563 1584.1094,234.5469 Q1584.2969,234.4375 1584.5156,234.4375 Q1584.8906,234.4375 1585.125,234.7031 Q1585.3594,234.9531 1585.3594,235.5625 L1585.3594,237.0156 Q1585.3594,237.625 1585.125,237.8906 Q1584.8906,238.1563 1584.5156,238.1563 Q1584.1719,238.1563 1583.9688,237.9531 Q1583.7656,237.7656 1583.6563,237.25 Q1583.6094,236.8906 1583.4219,236.7031 Q1583.0938,236.3281 1582.4844,236.1094 Q1581.875,235.8906 1581.25,235.8906 Q1580.4844,235.8906 1579.8438,236.2188 Q1579.2188,236.5469 1578.7188,237.2969 Q1578.2344,238.0469 1578.2344,239.0781 L1578.2344,240.1719 Q1578.2344,241.4063 1579.125,242.2344 Q1580.0156,243.0469 1581.6094,243.0469 Q1582.5469,243.0469 1583.2031,242.7969 Q1583.5938,242.6406 1584.0156,242.2031 Q1584.2813,241.9375 1584.4219,241.8594 Q1584.5781,241.7813 1584.7813,241.7813 Q1585.1094,241.7813 1585.3594,242.0469 Q1585.625,242.2969 1585.625,242.6406 Q1585.625,242.9844 1585.2813,243.3906 Q1584.7813,243.9688 1583.9844,244.2969 Q1582.9063,244.75 1581.6094,244.75 Q1580.0938,244.75 1578.8906,244.125 Q1577.9063,243.625 1577.2188,242.5625 Q1576.5313,241.4844 1576.5313,240.2031 L1576.5313,239.0469 Q1576.5313,237.7188 1577.1406,236.5781 Q1577.7656,235.4219 1578.8594,234.8125 Q1579.9531,234.1875 1581.1875,234.1875 Q1581.9219,234.1875 1582.5625,234.3594 Q1583.2188,234.5156 1583.7656,234.875 Z " fill="#000000"/><text fill="#000000" font-family="sans-serif" font-size="14" lengthAdjust="spacing" textLength="35" x="1595" y="244.7969">Place</text><line style="stroke:#181818;stroke-width:0.5;" x1="1567" x2="1632" y1="255" y2="255"/><line style="stroke:#181818;stroke-width:0.5;" x1="1567" x2="1632" y1="263" y2="263"/></g><!--MD5=[772a1b0791aca9f8953f90da3f17f055]
class AppRater--><g id="elem_AppRater"><rect codeLine="46" fill="#F1F1F1" height="48" id="AppRater" rx="2.5" ry="2.5" style="stroke:#181818;stroke-width:0.5;" width="92" x="1668.5" y="223"/><ellipse cx="1683.5" cy="239" fill="#ADD1B2" rx="11" ry="11" style="stroke:#181818;stroke-width:1.0;"/><path d="M1686.2656,234.875 Q1686.4219,234.6563 1686.6094,234.5469 Q1686.7969,234.4375 1687.0156,234.4375 Q1687.3906,234.4375 1687.625,234.7031 Q1687.8594,234.9531 1687.8594,235.5625 L1687.8594,237.0156 Q1687.8594,237.625 1687.625,237.8906 Q1687.3906,238.1563 1687.0156,238.1563 Q1686.6719,238.1563 1686.4688,237.9531 Q1686.2656,237.7656 1686.1563,237.25 Q1686.1094,236.8906 1685.9219,236.7031 Q1685.5938,236.3281 1684.9844,236.1094 Q1684.375,235.8906 1683.75,235.8906 Q1682.9844,235.8906 1682.3438,236.2188 Q1681.7188,236.5469 1681.2188,237.2969 Q1680.7344,238.0469 1680.7344,239.0781 L1680.7344,240.1719 Q1680.7344,241.4063 1681.625,242.2344 Q1682.5156,243.0469 1684.1094,243.0469 Q1685.0469,243.0469 1685.7031,242.7969 Q1686.0938,242.6406 1686.5156,242.2031 Q1686.7813,241.9375 1686.9219,241.8594 Q1687.0781,241.7813 1687.2813,241.7813 Q1687.6094,241.7813 1687.8594,242.0469 Q1688.125,242.2969 1688.125,242.6406 Q1688.125,242.9844 1687.7813,243.3906 Q1687.2813,243.9688 1686.4844,244.2969 Q1685.4063,244.75 1684.1094,244.75 Q1682.5938,244.75 1681.3906,244.125 Q1680.4063,243.625 1679.7188,242.5625 Q1679.0313,241.4844 1679.0313,240.2031 L1679.0313,239.0469 Q1679.0313,237.7188 1679.6406,236.5781 Q1680.2656,235.4219 1681.3594,234.8125 Q1682.4531,234.1875 1683.6875,234.1875 Q1684.4219,234.1875 1685.0625,234.3594 Q1685.7188,234.5156 1686.2656,234.875 Z " fill="#000000"/><text fill="#000000" font-family="sans-serif" font-size="14" lengthAdjust="spacing" textLength="60" x="1697.5" y="244.7969">AppRater</text><line style="stroke:#181818;stroke-width:0.5;" x1="1669.5" x2="1759.5" y1="255" y2="255"/><line style="stroke:#181818;stroke-width:0.5;" x1="1669.5" x2="1759.5" y1="263" y2="263"/></g><!--MD5=[6a9c638b74c89a2bb064a36d8709845d]
link IntroActivity to MenuActivity--><g id="link_IntroActivity_MenuActivity"><path codeLine="49" d="M885.61,55 C910.35,72.72 944.41,97.11 969.19,114.86 " fill="none" id="IntroActivity-MenuActivity" style="stroke:#181818;stroke-width:1.0;"/></g><!--MD5=[3e23acdc08583a793c045b3a055d46ca]
link MenuActivity to DebugOptionsActivity--><g id="link_MenuActivity_DebugOptionsActivity"><path codeLine="50" d="M945.7,143.37 C813.85,151.83 472.92,176.72 191.5,223 C185.82,223.93 179.98,224.99 174.12,226.13 " fill="none" id="MenuActivity-DebugOptionsActivity" style="stroke:#181818;stroke-width:1.0;"/></g><!--MD5=[4da9ba69183ed0e53494cfe2a5bcb7fe]
link MenuActivity to ExploreActivity--><g id="link_MenuActivity_ExploreActivity"><path codeLine="51" d="M945.63,144.14 C832.3,153.2 567.63,177.65 349.5,223 C343.91,224.16 338.13,225.52 332.37,226.99 " fill="none" id="MenuActivity-ExploreActivity" style="stroke:#181818;stroke-width:1.0;"/></g><!--MD5=[9f94b72c19acf060bc211b4f77bf83c7]
link MenuActivity to InfoActivity--><g id="link_MenuActivity_InfoActivity"><path codeLine="52" d="M945.67,145.76 C850.04,156.33 649.18,181.61 483.5,223 C477.89,224.4 472.09,226.06 466.34,227.84 " fill="none" id="MenuActivity-InfoActivity" style="stroke:#181818;stroke-width:1.0;"/></g><!--MD5=[3dfcbd9435089391be68079dc29bf3bd]
link MenuActivity to LatestPlacesActivity--><g id="link_MenuActivity_LatestPlacesActivity"><path codeLine="53" d="M945.9,153.97 C872.26,172.46 741.97,205.19 658.24,226.22 " fill="none" id="MenuActivity-LatestPlacesActivity" style="stroke:#181818;stroke-width:1.0;"/></g><!--MD5=[119ba0284de49822bb09dcc0ab178ff0]
link MenuActivity to MapsActivity--><g id="link_MenuActivity_MapsActivity"><path codeLine="54" d="M946.6,163 C904.31,180.72 846.1,205.11 803.73,222.86 " fill="none" id="MenuActivity-MapsActivity" style="stroke:#181818;stroke-width:1.0;"/></g><!--MD5=[d2ee15241bdc1bd895c1a2b02d48ad8a]
link MenuActivity to NotificationsActivity--><g id="link_MenuActivity_NotificationsActivity"><path codeLine="55" d="M982.62,163 C968.13,180.66 948.2,204.94 933.64,222.68 " fill="none" id="MenuActivity-NotificationsActivity" style="stroke:#181818;stroke-width:1.0;"/></g><!--MD5=[eda37defe203e87a80e976751565b712]
link MenuActivity to UserListActivity--><g id="link_MenuActivity_UserListActivity"><path codeLine="56" d="M1020.59,163 C1035.25,180.66 1055.41,204.94 1070.14,222.68 " fill="none" id="MenuActivity-UserListActivity" style="stroke:#181818;stroke-width:1.0;"/></g><!--MD5=[77c42818d2d92977f51e2b2bc2e66324]
link MenuActivity to Const--><g id="link_MenuActivity_Const"><path codeLine="57" d="M1049.45,163 C1091.22,183.03 1150.76,211.59 1187.99,229.45 " fill="none" id="MenuActivity-Const" style="stroke:#181818;stroke-width:1.0;"/></g><!--MD5=[6b8d10296311a129c78f4ae4bc700ae3]
link MenuActivity to RateDialog--><g id="link_MenuActivity_RateDialog"><path codeLine="58" d="M1057.06,156.42 C1112.32,172.86 1199.45,199.09 1274.5,223 C1280.27,224.84 1286.31,226.8 1292.3,228.77 " fill="none" id="MenuActivity-RateDialog" style="stroke:#181818;stroke-width:1.0;"/></g><!--MD5=[87d5fe78714f824bb709b57f86a748a1]
link MenuActivity to Notification--><g id="link_MenuActivity_Notification"><path codeLine="59" d="M1057.2,148.94 C1136.71,162.22 1287.02,189.26 1412.5,223 C1418.16,224.52 1424.03,226.26 1429.84,228.08 " fill="none" id="MenuActivity-Notification" style="stroke:#181818;stroke-width:1.0;"/></g><!--MD5=[ff6389746058f4fc7459fa157be7be08]
link MenuActivity to Place--><g id="link_MenuActivity_Place"><path codeLine="60" d="M1057.32,143.43 C1157.51,150.69 1373.7,171.38 1548.5,223 C1554.28,224.71 1560.24,226.93 1565.98,229.33 " fill="none" id="MenuActivity-Place" style="stroke:#181818;stroke-width:1.0;"/></g><!--MD5=[f6ffdfe6d1c10d68a8a532e0f89d77b3]
link MenuActivity to AppRater--><g id="link_MenuActivity_AppRater"><path codeLine="61" d="M1057.37,143.04 C1170.63,150.1 1434.87,171.12 1650.5,223 C1656.35,224.41 1662.42,226.17 1668.37,228.08 " fill="none" id="MenuActivity-AppRater" style="stroke:#181818;stroke-width:1.0;"/></g><!--MD5=[f793045aaa3752dd68bfa92accd735c6]
link PrivacyActivity to MenuActivity--><g id="link_PrivacyActivity_MenuActivity"><path codeLine="62" d="M1001.5,55 C1001.5,72.66 1001.5,96.94 1001.5,114.68 " fill="none" id="PrivacyActivity-MenuActivity" style="stroke:#181818;stroke-width:1.0;"/></g><!--MD5=[632cfce0c15afd9f2d3bbb51aae99749]
link SplashActivity to MenuActivity--><g id="link_SplashActivity_MenuActivity"><path codeLine="63" d="M1123.65,55 C1097.57,72.72 1061.68,97.11 1035.55,114.86 " fill="none" id="SplashActivity-MenuActivity" style="stroke:#181818;stroke-width:1.0;"/></g><!--MD5=[cadd3bb3d47262fa9290674230aebe5c]
@startuml
class DebugOptionsActivity {
}

class ExploreActivity {
}

class InfoActivity {
}

class IntroActivity {
}

class LatestPlacesActivity {
}

class MapsActivity {
}

class MenuActivity {
}

class NotificationsActivity {
}

class PrivacyActivity {
}

class SplashActivity {
}

class UserListActivity {
}

class Const {
}

class RateDialog {
}

class Notification {
}

class Place {
}

class AppRater {
}

IntroActivity - - MenuActivity
MenuActivity - - DebugOptionsActivity
MenuActivity - - ExploreActivity
MenuActivity - - InfoActivity
MenuActivity - - LatestPlacesActivity
MenuActivity - - MapsActivity
MenuActivity - - NotificationsActivity
MenuActivity - - UserListActivity
MenuActivity - - Const
MenuActivity - - RateDialog
MenuActivity - - Notification
MenuActivity - - Place
MenuActivity - - AppRater
PrivacyActivity - - MenuActivity
SplashActivity - - MenuActivity
@enduml

PlantUML version 1.2022.13(Sat Nov 19 14:22:17 CET 2022)
(GPL source distribution)
Java Runtime: OpenJDK Runtime Environment
JVM: OpenJDK 64-Bit Server VM
Default Encoding: Cp1252
Language: it
Country: IT
--></g></svg>